<svg width="37" height="37" viewBox="0 0 37 37" fill="none" xmlns="http://www.w3.org/2000/svg">
<g clip-path="url(#clip0_1557_12840)">
<path d="M0.871094 0.0605469H36.8711V36.0605H0.871094V0.0605469Z" fill="#C7001D"/>
<path d="M20.0317 27.3719C20.0317 27.4213 20.0375 27.4677 20.0491 27.5108C20.0617 27.5529 20.0796 27.5898 20.1028 27.6213C20.126 27.6518 20.1549 27.6761 20.1896 27.694C20.2244 27.7118 20.2638 27.7208 20.3081 27.7208C20.3459 27.7212 20.3834 27.7142 20.4186 27.7003C20.4522 27.6856 20.4817 27.6645 20.507 27.6371C20.5323 27.6098 20.5517 27.5766 20.5654 27.5376C20.5801 27.4977 20.5875 27.4519 20.5875 27.4003C20.5899 27.352 20.5857 27.3037 20.5749 27.2566C20.5643 27.2113 20.5475 27.1718 20.5244 27.1382C20.5015 27.1047 20.4705 27.0776 20.4344 27.0592C20.3986 27.0392 20.3565 27.0292 20.3081 27.0292C20.2673 27.0286 20.2271 27.0384 20.1912 27.0576C20.1572 27.0758 20.1276 27.1011 20.1044 27.1319C20.0801 27.1646 20.0619 27.2016 20.0507 27.2408C20.038 27.2819 20.0317 27.3256 20.0317 27.3719ZM20.0317 27.784H19.937V26.6471H20.0317V27.0971C20.0622 27.0466 20.1039 27.0087 20.1565 26.9834C20.2085 26.9575 20.2657 26.944 20.3238 26.944C20.3859 26.944 20.4396 26.9561 20.4849 26.9803C20.5298 27.0023 20.5688 27.0348 20.5986 27.075C20.63 27.1159 20.6531 27.1626 20.6665 27.2124C20.6812 27.265 20.6886 27.3197 20.6886 27.3766C20.6886 27.4366 20.6818 27.4929 20.668 27.5455C20.6543 27.5982 20.6322 27.6439 20.6017 27.6829C20.5714 27.7214 20.5325 27.7523 20.4881 27.7729C20.4418 27.795 20.3854 27.8061 20.3191 27.8061C20.2928 27.8061 20.2659 27.8024 20.2386 27.795C20.2107 27.7874 20.1837 27.7768 20.1581 27.7634C20.1324 27.7495 20.1086 27.7325 20.087 27.7129C20.0658 27.6917 20.0482 27.6671 20.0349 27.6403H20.0317V27.784ZM20.8849 28.0066L20.9228 28.0129C20.9365 28.015 20.9501 28.0161 20.9638 28.0161C20.9902 28.0161 21.0117 28.0077 21.0286 27.9908C21.0454 27.9739 21.0591 27.9534 21.0696 27.9292C21.0814 27.9054 21.0909 27.8806 21.098 27.855C21.1054 27.8298 21.1138 27.8082 21.1233 27.7903L20.8059 26.9661H20.9117L21.1738 27.6687L21.4359 26.9661H21.5386L21.2338 27.7729C21.2149 27.8245 21.1964 27.8708 21.1786 27.9119C21.1617 27.9529 21.1433 27.9876 21.1233 28.0161C21.1043 28.0456 21.0827 28.0677 21.0586 28.0824C21.0354 28.0982 21.0075 28.1061 20.9749 28.1061C20.958 28.1061 20.9417 28.105 20.9259 28.1029C20.9121 28.101 20.8984 28.0984 20.8849 28.095V28.0066ZM23.0264 27.6324H23.0296L23.2775 26.6471H23.388L23.0896 27.784H22.9712L22.7075 26.7798H22.7043L22.4406 27.784H22.3222L22.0285 26.6471H22.1359L22.3806 27.6324H22.3838L22.6475 26.6471H22.7675L23.0264 27.6324ZM23.5375 27.784V26.6471H24.2938V26.7387H23.6449V27.1492H24.2307V27.2408H23.6449V27.6924H24.3096V27.784H23.5375ZM24.498 27.784V26.6471H24.6622L25.0349 27.6498H25.038L25.4043 26.6471H25.567V27.784H25.4596V26.7703H25.4564L25.0838 27.784H24.9827L24.6085 26.7703H24.6054V27.784H24.498ZM25.7138 27.784L26.1606 26.6471H26.2822L26.718 27.784H26.6075L26.4764 27.4271H25.9585L25.8243 27.784H25.7138ZM25.9949 27.3355H26.4401L26.2175 26.7387L25.9949 27.3355ZM13.0642 24.9009H11.9897L11.8253 25.2576H11.0396V25.1554L12.3586 22.3551H12.7033L14.0082 25.1554V25.2576H13.2325L13.0642 24.9009ZM12.5269 23.5778L12.2303 24.2714H12.8256L12.5269 23.5778ZM16.6146 22.3831V24.5841H17.655V25.2576H15.8649V22.3831H16.6146ZM21.6515 24.9009H20.5771L20.4127 25.2576H19.627V25.1554L20.9459 22.3551H21.2907L22.5956 25.1554V25.2576H21.8199L21.6515 24.9009ZM21.1143 23.5778L20.8176 24.2714H21.413L21.1143 23.5778ZM25.1815 23.0406H24.4759V22.3831H26.6107V23.0406H25.9091V25.2576H25.1815V23.0406ZM9.65009 20.3972H19.1887C19.3765 20.3972 19.4986 20.1996 19.4147 20.0316L19.2185 19.6393L18.808 18.913L18.7868 18.8778C18.7644 18.8403 18.7326 18.8094 18.6947 18.7879C18.6567 18.7664 18.6138 18.7551 18.5702 18.7551H12.5237C12.3282 18.7551 12.2068 18.5427 12.306 18.3743L16.255 11.6695C16.3523 11.5042 16.5912 11.5034 16.6895 11.6682L21.8292 20.2741C21.8516 20.3116 21.8834 20.3427 21.9214 20.3643C21.9594 20.3859 22.0024 20.3972 22.0461 20.3972H27.9072C28.1017 20.3972 28.2232 20.1866 28.126 20.0183L21.123 7.89194C21.1009 7.85354 21.069 7.82165 21.0306 7.79947C20.9922 7.7773 20.9486 7.76563 20.9043 7.76562H19.6486C19.4558 7.76562 19.334 7.97285 19.4279 8.14129L25.1354 18.3794C25.2293 18.5479 25.1075 18.7551 24.9148 18.7551H23.0268C22.9826 18.7551 22.9392 18.7435 22.901 18.7215C22.8627 18.6995 22.8308 18.6678 22.8086 18.6297L16.7337 8.20685C16.7115 8.16868 16.6796 8.13701 16.6413 8.115C16.603 8.09299 16.5596 8.08141 16.5155 8.08141H16.4901C16.4459 8.08142 16.4025 8.09301 16.3642 8.11504C16.3258 8.13708 16.294 8.16877 16.2718 8.20697L9.43176 19.9593C9.40928 19.9979 9.39745 20.0418 9.39746 20.0864V20.1446C9.39746 20.2116 9.42408 20.2758 9.47145 20.3232C9.51883 20.3706 9.58309 20.3972 9.65009 20.3972Z" fill="white"/>
</g>
<defs>
<clipPath id="clip0_1557_12840">
<rect width="36" height="36" fill="white" transform="translate(0.871094 0.0605469)"/>
</clipPath>
</defs>
</svg>
