<svg width="62" height="37" viewBox="0 0 62 37" fill="none" xmlns="http://www.w3.org/2000/svg">
<g clip-path="url(#clip0_1557_12692)">
<path d="M49.4496 0.0605469L43.0811 1.41386V27.1269H49.4496V0.0605469Z" fill="#56BD82"/>
<mask id="mask0_1557_12692" style="mask-type:luminance" maskUnits="userSpaceOnUse" x="0" y="0" width="62" height="37">
<path d="M61.4881 0.0605469H0.128906V36.0605H61.4881V0.0605469Z" fill="white"/>
</mask>
<g mask="url(#mask0_1557_12692)">
<path d="M31.3173 7.74609C29.3737 7.74609 27.4737 8.32244 25.8577 9.40225C24.2416 10.4821 22.9821 12.0168 22.2383 13.8125C21.4945 15.6081 21.2999 17.584 21.6791 19.4903C22.0582 21.3965 22.9942 23.1475 24.3685 24.5219C25.7428 25.8962 27.4939 26.8321 29.4001 27.2113C31.3064 27.5905 33.2823 27.3959 35.0779 26.6521C36.8736 25.9083 38.4083 24.6488 39.4881 23.0327C40.5679 21.4167 41.1443 19.5167 41.1443 17.5731C41.1441 14.9669 40.1086 12.4675 38.2658 10.6246C36.4229 8.78175 33.9235 7.74633 31.3173 7.74609ZM31.3173 20.7574C30.6875 20.7574 30.0718 20.5706 29.5482 20.2207C29.0245 19.8709 28.6164 19.3735 28.3754 18.7917C28.1344 18.2098 28.0713 17.5696 28.1942 16.9519C28.317 16.3342 28.6203 15.7668 29.0656 15.3215C29.511 14.8762 30.0784 14.5729 30.696 14.45C31.3137 14.3272 31.954 14.3902 32.5358 14.6312C33.1177 14.8722 33.615 15.2804 33.9649 15.804C34.3148 16.3277 34.5015 16.9433 34.5015 17.5731C34.5015 18.4176 34.1661 19.2276 33.5689 19.8247C32.9717 20.4219 32.1618 20.7574 31.3173 20.7574Z" fill="#56BD82"/>
<path d="M31.3171 29.6914C31.9469 29.6914 32.5625 29.8782 33.0862 30.2281C33.6098 30.5779 34.018 31.0753 34.259 31.6571C34.5 32.239 34.563 32.8792 34.4402 33.4969C34.3173 34.1146 34.014 34.682 33.5687 35.1273C33.1234 35.5726 32.556 35.8759 31.9383 35.9988C31.3206 36.1216 30.6804 36.0586 30.0985 35.8176C29.5167 35.5766 29.0194 35.1684 28.6695 34.6448C28.3196 34.1211 28.1328 33.5055 28.1328 32.8757C28.1328 32.0312 28.4683 31.2212 29.0655 30.6241C29.6626 30.0269 30.4726 29.6914 31.3171 29.6914Z" fill="#56BD82"/>
<path d="M17.1471 12.8153C17.9292 11.5489 18.3591 10.0965 18.3923 8.60839C18.4255 7.12024 18.0608 5.6502 17.3359 4.3501C16.611 3.05001 15.5522 1.96699 14.2689 1.2129C12.9855 0.458816 11.5241 0.0610023 10.0355 0.0605469L0.128906 0.0605469V27.1269H11.2739C12.9319 27.1262 14.5523 26.6327 15.9291 25.7091C17.306 24.7854 18.3773 23.4733 19.0067 21.9394C19.6362 20.4056 19.7955 18.7192 19.4644 17.0946C19.1333 15.47 18.3267 13.9805 17.1471 12.8153ZM6.5063 6.4291H10.0444C10.5722 6.4291 11.0784 6.63877 11.4516 7.012C11.8249 7.38523 12.0346 7.89144 12.0346 8.41927C12.0346 8.9471 11.8249 9.4533 11.4516 9.82653C11.0784 10.1998 10.5722 10.4094 10.0444 10.4094H6.5063V6.4291ZM11.2827 20.7583H6.5063V16.778H11.2827C11.8105 16.778 12.3167 16.9877 12.69 17.3609C13.0632 17.7341 13.2729 18.2403 13.2729 18.7682C13.2729 19.296 13.0632 19.8022 12.69 20.1754C12.3167 20.5487 11.8105 20.7583 11.2827 20.7583Z" fill="#56BD82"/>
<path d="M61.4796 14.4776V8.10901H58.2953V3.24414L51.9268 4.59746V21.0761C51.9268 24.9591 54.3415 27.197 57.8973 27.3827C57.9327 27.3827 57.9769 27.3916 58.0123 27.3916H58.0742C58.1538 27.3916 58.2245 27.4004 58.3042 27.4004H58.3838C59.4685 27.3956 60.5352 27.1221 61.4884 26.6043V21.9164C61.0243 22.0424 60.5453 22.1049 60.0644 22.1021C58.7906 22.1021 58.3042 20.9876 58.3042 19.4751V14.4776H61.4796Z" fill="#56BD82"/>
</g>
</g>
<defs>
<clipPath id="clip0_1557_12692">
<rect width="61.3592" height="36" fill="white" transform="translate(0.128906 0.0605469)"/>
</clipPath>
</defs>
</svg>
