<svg width="243" height="40" viewBox="0 0 243 40" fill="none" xmlns="http://www.w3.org/2000/svg">
<path d="M70.239 21.9408C69.2059 27.5166 64.2339 32.0625 58.3593 32.0625C55.7632 32.0625 53.3212 31.2496 51.3148 29.8627V29.8658L46 32.0138L48.0803 26.5842C46.8444 24.7303 46.1195 22.521 46.1195 20.1403C46.1195 13.5125 51.7331 8.0625 58.3593 8.0625C64.5279 8.0625 69.6085 12.7153 70.283 18.7031C63.9226 18.6182 61.9885 17.5065 60.7431 16.6385C60.5057 16.4734 60.2525 16.3476 59.9962 16.2564C59.4521 16.0174 58.853 15.8853 58.2209 15.8853C55.7821 15.8853 54.043 17.3839 54.043 19.8243C54.043 22.2647 55.9 23.7616 58.3404 23.7616C58.721 23.7616 59.0905 23.7129 59.4427 23.6217C60.0795 23.4849 60.4915 23.2553 60.4915 23.2553C64.3896 21.1058 69.2389 21.6184 70.2374 21.9408H70.239Z" fill="black"/>
<path d="M84.55 29.2103C79.438 29.2103 75.584 25.2619 75.584 20.0273C75.584 14.7927 79.3248 10.9434 84.4776 10.9434C88.9276 10.9434 91.9404 13.3555 92.3429 17.2362V17.2488H88.9481C88.2751 15.4106 86.5548 14.2266 84.5516 14.2266C81.4098 14.2266 79.2996 16.5569 79.2996 20.0273C79.2996 23.4976 81.4098 25.8516 84.5516 25.8516C86.558 25.8516 88.2137 24.7131 88.8757 22.8828L92.3445 22.9048V22.919C92.1763 23.9694 91.0205 29.2103 84.5516 29.2118H84.55V29.2103Z" fill="black"/>
<path d="M84.4775 10.9564C89.3096 10.9564 91.9686 13.7349 92.3302 17.2383H88.948C88.3284 15.5228 86.6962 14.2161 84.5514 14.2161C81.4066 14.2161 79.2869 16.5747 79.2869 20.0278C79.2869 23.4808 81.4066 25.8631 84.5514 25.8631C86.6947 25.8631 88.2671 24.6004 88.8866 22.8849L92.3302 22.9147C91.9686 25.2105 90.1556 29.1966 84.5514 29.1982H84.5499C79.4536 29.1982 75.5949 25.2907 75.5949 20.0278C75.5949 14.7648 79.3325 10.9548 84.4775 10.9548M84.4775 10.9328C81.9789 10.9328 79.7099 11.8417 78.0903 13.4927C76.466 15.1469 75.5713 17.4694 75.5713 20.0293C75.5713 22.5893 76.4849 24.9117 78.1438 26.6052C79.798 28.294 82.0733 29.2233 84.5499 29.2233C87.0312 29.2233 89.0061 28.4528 90.4245 26.9339C91.8318 25.4259 92.2438 23.6239 92.3538 22.9195L92.3586 22.8912H92.3302L88.8866 22.8613H88.8693L88.863 22.877C88.2042 24.7042 86.5516 25.8379 84.5499 25.8379C81.416 25.8379 79.309 23.5028 79.309 20.0262C79.309 18.3358 79.809 16.8876 80.7556 15.8404C81.7038 14.7916 83.0152 14.2381 84.5483 14.2381C86.5453 14.2381 88.2624 15.4174 88.9212 17.2446L88.9275 17.2603H92.3538L92.3507 17.2336C92.1636 15.4205 91.3821 13.8748 90.0927 12.7631C88.7011 11.5634 86.7591 10.9297 84.4744 10.9297L84.4775 10.9328Z" fill="black"/>
<path d="M102.019 28.6841V21.0499C102.019 19.5892 101.066 18.608 99.649 18.608C98.2323 18.608 97.2794 19.5892 97.2794 21.0499V28.6841H93.6816V10.9141H97.2794V16.8201C97.9665 15.8829 99.1694 15.3688 100.674 15.3688C103.63 15.3688 105.616 17.3453 105.616 20.2889V28.6857H102.019V28.6841Z" fill="black"/>
<path d="M97.2667 10.9255V16.8568C97.9805 15.8567 99.2196 15.3802 100.673 15.3802C103.602 15.3802 105.604 17.3332 105.604 20.2878V28.672H102.031V21.0489C102.031 19.5723 101.055 18.5959 99.6489 18.5959C98.2431 18.5959 97.2667 19.5723 97.2667 21.0489V28.672H93.6941V10.9255H97.2667ZM97.2903 10.9004H93.6689V28.6956H97.2903V21.0489C97.2903 19.5959 98.2384 18.6194 99.6489 18.6194C101.059 18.6194 102.006 19.5959 102.006 21.0489V28.6956H105.627V20.2862C105.627 17.3363 103.637 15.3551 100.673 15.3551C99.1803 15.3551 97.9821 15.8614 97.2903 16.7829V10.9004Z" fill="black"/>
<path d="M113.746 28.9707C109.774 28.9707 106.778 26.0475 106.778 22.1699C106.778 18.2923 109.774 15.3691 113.746 15.3691C117.718 15.3691 120.713 18.2923 120.713 22.1699C120.713 26.0475 117.718 28.9707 113.746 28.9707ZM113.746 18.6083C111.832 18.6083 110.494 20.0723 110.494 22.1699C110.494 24.2675 111.831 25.7315 113.746 25.7315C115.661 25.7315 116.998 24.2675 116.998 22.1699C116.998 20.0723 115.661 18.6083 113.746 18.6083Z" fill="black"/>
<path d="M113.747 15.3787C117.605 15.3787 120.701 18.2374 120.701 22.1684C120.701 26.0995 117.605 28.9566 113.747 28.9566C109.888 28.9566 106.79 26.0979 106.79 22.1684C106.79 18.2389 109.886 15.3787 113.747 15.3787ZM113.747 25.7394C115.7 25.7394 117.009 24.2629 117.009 22.1669C117.009 20.0708 115.7 18.5943 113.747 18.5943C111.794 18.5943 110.484 20.0944 110.484 22.1669C110.484 24.2393 111.794 25.7394 113.747 25.7394ZM113.747 15.3535C111.855 15.3535 110.1 16.0375 108.804 17.2813C107.49 18.5424 106.767 20.2784 106.767 22.1669C106.767 24.0553 107.49 25.7913 108.804 27.0524C110.1 28.2946 111.855 28.9802 113.747 28.9802C115.638 28.9802 117.393 28.2962 118.689 27.0524C120.003 25.7913 120.727 24.0553 120.727 22.1669C120.727 20.2784 120.003 18.5424 118.689 17.2813C117.393 16.0391 115.638 15.3535 113.747 15.3535ZM113.747 25.7158C112.8 25.7158 111.989 25.373 111.401 24.7236C110.816 24.0789 110.507 23.1952 110.507 22.1669C110.507 20.0771 111.839 18.6179 113.747 18.6179C115.654 18.6179 116.986 20.0771 116.986 22.1669C116.986 23.1937 116.678 24.0789 116.093 24.7236C115.505 25.373 114.693 25.7158 113.747 25.7158Z" fill="black"/>
<path d="M133.938 28.6854L130.962 20.0402L127.971 28.6775L124.815 28.6854L120.319 15.6562H124.029L126.436 23.3942L128.949 15.6641L132.938 15.6562L135.463 23.3942L137.833 15.6641L141.579 15.6562L137.091 28.6854H133.938Z" fill="black"/>
<path d="M141.561 15.6642L137.083 28.6698H133.938L130.96 19.9994L127.958 28.6698H124.813L120.335 15.6642H124.027L126.433 23.4304L128.958 15.6642H132.937L135.462 23.4304L137.844 15.6642H141.56M141.594 15.6406H137.827L137.822 15.6579L135.462 23.3502L132.96 15.6579L132.955 15.6406H128.943L128.938 15.6579L126.436 23.3518L124.052 15.6595L124.048 15.6422H120.304L120.315 15.6736L124.793 28.6792L124.799 28.6949H127.979L127.985 28.6792L130.963 20.0749L133.918 28.6792L133.924 28.6949H137.104L137.11 28.6792L141.588 15.6736L141.599 15.6422L141.594 15.6406Z" fill="black"/>
<path d="M147.818 28.9703C144.097 28.9703 141.184 25.9827 141.184 22.1695C141.184 18.3564 144.088 15.3688 147.794 15.3688C149.307 15.3688 150.629 15.8531 151.522 16.7336V10.9141H155.12V28.6841H151.761V27.4639C150.846 28.4356 149.447 28.9703 147.819 28.9703H147.818ZM148.245 18.608C146.385 18.608 145.137 20.0483 145.137 22.1915C145.137 24.3348 146.357 25.7295 148.245 25.7295C150.134 25.7295 151.153 24.4071 151.153 22.1915C151.153 19.976 150.066 18.608 148.245 18.608Z" fill="black"/>
<path d="M155.106 10.9255V28.672H151.771V27.4329C150.842 28.433 149.413 28.9582 147.817 28.9582C144.029 28.9582 141.195 25.9564 141.195 22.17C141.195 18.3836 144.101 15.3802 147.793 15.3802C149.342 15.3802 150.652 15.8803 151.532 16.7624V10.9255H155.105M148.246 25.741C150.175 25.741 151.166 24.3101 151.166 22.1904C151.166 20.0708 150.175 18.5943 148.246 18.5943C146.316 18.5943 145.125 20.118 145.125 22.1904C145.125 24.2629 146.293 25.741 148.246 25.741ZM155.13 10.9004H151.509V16.7027C150.614 15.8331 149.296 15.3551 147.793 15.3551C144.079 15.3551 141.17 18.3474 141.17 22.1684C141.17 24.0176 141.844 25.7331 143.068 27.0005C144.302 28.2789 145.988 28.9818 147.817 28.9818C149.436 28.9818 150.828 28.4534 151.746 27.4942V28.6956H155.13V10.9004ZM148.246 25.7174C146.365 25.7174 145.15 24.3337 145.15 22.1904C145.15 21.1589 145.434 20.2736 145.972 19.6305C146.527 18.9685 147.313 18.6179 148.246 18.6179C150.059 18.6179 151.141 19.9529 151.141 22.1889C151.141 23.2518 150.888 24.1355 150.41 24.7441C149.903 25.3888 149.175 25.7158 148.246 25.7158V25.7174Z" fill="black"/>
<path d="M162.668 28.9769C160.808 28.9769 159.127 28.2536 157.932 26.9391C156.787 25.6796 156.156 23.9766 156.156 22.1463C156.156 18.2829 158.954 15.3691 162.663 15.3691H162.743C166.52 15.4132 169.056 18.0093 169.056 21.8303C169.056 22.3492 169.056 22.7973 169.044 23.1715V23.1825H159.899C160.119 24.8289 161.317 25.8494 163.029 25.8494C164.254 25.8494 165.136 25.3887 165.652 24.4814L169.06 24.4751L169.056 24.4892C168.494 27.0806 166.108 28.8401 162.982 28.9707C162.877 28.9754 162.771 28.9769 162.668 28.9769ZM165.397 20.5377C165.248 19.1477 164.207 18.2514 162.743 18.2514C161.279 18.2514 160.323 19.0848 159.971 20.5377H165.397Z" fill="black"/>
<path d="M162.663 15.3787C162.69 15.3787 162.716 15.3787 162.743 15.3787C166.75 15.4243 169.044 18.2311 169.044 21.8272C169.044 22.3508 169.044 22.7943 169.031 23.1685H159.884C160.098 24.8117 161.267 25.8605 163.029 25.8605C164.292 25.8605 165.161 25.3667 165.663 24.4862H169.045C168.442 27.2647 165.904 28.8355 162.982 28.9566C162.877 28.9613 162.771 28.9629 162.669 28.9629C158.729 28.9629 156.17 25.8117 156.17 22.1433C156.17 18.2877 158.988 15.3771 162.664 15.3771M159.957 20.5488H165.411C165.268 19.1667 164.221 18.2389 162.743 18.2389C161.265 18.2389 160.314 19.0487 159.955 20.5488M162.663 15.3551C160.875 15.3551 159.226 16.0454 158.019 17.3002C156.81 18.5566 156.144 20.2768 156.144 22.1448C156.144 24.0129 156.776 25.6844 157.922 26.9455C159.119 28.2632 160.804 28.9881 162.668 28.9881C162.771 28.9881 162.877 28.9865 162.982 28.9818C164.473 28.9189 165.827 28.4896 166.896 27.738C168.028 26.9423 168.78 25.8196 169.067 24.4909L169.074 24.461H165.647L165.641 24.4736C165.128 25.3778 164.249 25.8353 163.029 25.8353C161.329 25.8353 160.138 24.8227 159.913 23.1921H169.056V23.1685C169.071 22.7943 169.071 22.3461 169.071 21.8272C169.071 20.0268 168.482 18.404 167.416 17.2546C166.283 16.0328 164.666 15.3755 162.746 15.3535C162.719 15.3535 162.693 15.3535 162.666 15.3535L162.663 15.3551ZM159.987 20.5252C160.34 19.0865 161.344 18.2625 162.743 18.2625C164.143 18.2625 165.229 19.1494 165.383 20.5252H159.987Z" fill="black"/>
<path d="M177.158 28.9719C173.229 28.9719 170.265 26.0377 170.265 22.1475C170.265 20.3062 170.938 18.5985 172.158 17.339C173.391 16.0669 175.078 15.3672 176.908 15.3672C176.992 15.3672 177.076 15.3672 177.161 15.3719C181.786 15.5323 182.909 18.1064 183.434 20.8644L183.437 20.8786L180.187 20.8754C179.767 19.4759 178.613 18.6127 177.161 18.6127C175.289 18.6127 173.982 20.0766 173.982 22.1742C173.982 24.2719 175.29 25.7358 177.161 25.7358C178.613 25.7358 179.767 24.8725 180.176 23.4809L183.437 23.5139V23.5281C183.041 26.1603 181.184 28.975 177.161 28.9766H177.158V28.9719Z" fill="black"/>
<path d="M176.907 15.3767C176.991 15.3767 177.076 15.3767 177.161 15.3814C181.972 15.5481 182.939 18.3266 183.422 20.8645L180.186 20.8614C179.78 19.4792 178.614 18.5986 177.161 18.5986C175.278 18.5986 173.969 20.0751 173.969 22.1712C173.969 24.2672 175.278 25.7438 177.161 25.7438C178.637 25.7438 179.78 24.8616 180.186 23.481L183.422 23.5219C183.06 25.9387 181.368 28.9578 177.161 28.9594H177.159C173.253 28.9594 170.277 26.0284 170.277 22.146C170.277 18.2637 173.107 15.3767 176.907 15.3767ZM176.907 15.3516C175.074 15.3516 173.384 16.0529 172.149 17.3281C170.926 18.5908 170.253 20.3016 170.253 22.146C170.253 26.0441 173.222 28.983 177.159 28.983C179.071 28.983 180.617 28.3697 181.752 27.1621C182.942 25.8963 183.325 24.3396 183.447 23.5251L183.452 23.4983H183.424L180.188 23.4574H180.169L180.164 23.4747C179.758 24.86 178.607 25.7202 177.162 25.7202C175.297 25.7202 173.994 24.261 173.994 22.1712C173.994 20.0814 175.296 18.6222 177.162 18.6222C178.607 18.6222 179.758 19.4823 180.164 20.8676L180.169 20.8849H180.186L183.422 20.8881H183.452L183.447 20.8598C183.218 19.6506 182.858 18.2731 181.935 17.218C180.905 16.0419 179.345 15.4333 177.164 15.3579C177.079 15.3547 176.994 15.3531 176.911 15.3531L176.907 15.3516Z" fill="black"/>
<path d="M193.07 28.6841L189.924 23.4762L188.123 25.4166L188.128 28.6841H184.53V10.9141H188.128V20.5672L192.775 15.6581L196.979 15.6549L192.245 20.9147L196.974 28.6841H193.07Z" fill="black"/>
<path d="M188.116 10.9255V20.5976L192.785 15.6664H196.953L192.238 20.9073L196.953 28.6736H193.071L189.926 23.4562L188.116 25.4092V28.672H184.544V10.9255H188.116ZM188.14 10.9004H184.519V28.6956H188.14V25.4171L189.921 23.494L193.049 28.683L193.055 28.694H196.994L196.972 28.6578L192.266 20.9073L196.971 15.6806L197.007 15.6397H192.774L192.766 15.6476L188.138 20.5347V10.9004H188.14Z" fill="black"/>
</svg>
