<svg width="37" height="37" viewBox="0 0 37 37" fill="none" xmlns="http://www.w3.org/2000/svg">
<g clip-path="url(#clip0_1557_12806)">
<path d="M36.0558 6.13281H0.631836V29.9886H36.0558V6.13281Z" fill="#EC1B24"/>
<path d="M5.44718 26.9621H4.32902C4.13702 26.9621 4.04102 26.807 4.04102 26.4966V18.2678C4.04102 17.9574 4.13702 17.8022 4.32902 17.8019H5.44718L7.14098 17.7969C7.45962 17.8079 7.77651 17.849 8.08742 17.9196C8.40637 18.0003 8.71204 18.1265 8.99498 18.2944C9.20546 18.405 9.47305 18.6423 9.79777 19.0061C9.97232 19.2394 10.1174 19.4933 10.2298 19.7621C10.3884 20.1365 10.4677 20.6252 10.4677 21.228V23.5396C10.4677 24.1422 10.3884 24.6327 10.2298 25.0109C10.1164 25.2771 9.97131 25.5286 9.79777 25.7601C9.47305 26.1273 9.20546 26.3662 8.99498 26.4768C8.71204 26.6447 8.40637 26.7709 8.08742 26.8516C7.77651 26.9223 7.45962 26.9634 7.14098 26.9744L5.44718 26.9693V26.9621ZM5.95622 19.5735V25.1967H7.15754C7.3199 25.1967 7.43042 25.188 7.48946 25.17C8.18714 25.002 8.53586 24.508 8.53562 23.6879V21.0765C8.53562 20.2562 8.1869 19.7642 7.48946 19.6005C7.4297 19.5825 7.31906 19.5735 7.15754 19.5735H5.95622Z" fill="white"/>
<path d="M13.7396 24.7621L13.2691 26.5866C13.1949 26.8364 13.0583 26.9613 12.8594 26.9613H11.5198C11.3794 26.9613 11.3093 26.8773 11.3096 26.7093C11.3114 26.6263 11.3225 26.5437 11.3427 26.4631L13.5124 18.2987C13.5791 17.9667 13.712 17.8008 13.9109 17.8008H15.9039C16.1029 17.8008 16.2357 17.9667 16.3024 18.2987L18.4624 26.4631C18.4826 26.5437 18.4937 26.6263 18.4955 26.7093C18.4955 26.8773 18.4255 26.9613 18.2853 26.9613H16.9569C16.7575 26.9613 16.6209 26.8364 16.5472 26.5866L16.0753 24.7621H13.7396ZM15.6047 22.9164L14.9074 20.2092L14.2101 22.9164H15.6047Z" fill="white"/>
<path d="M21.1154 22.2644V26.5873C21.1154 26.8371 21.0158 26.9621 20.8166 26.9621H19.4882C19.2962 26.9621 19.2002 26.8069 19.2002 26.4966V18.2677C19.2002 17.9574 19.2962 17.8021 19.4882 17.8019H20.8166C21.0156 17.8019 21.8974 19.4088 23.4622 22.6226V18.2666C23.4622 17.9563 23.5582 17.801 23.7502 17.8008H25.0754C25.2748 17.8008 25.3744 17.9257 25.3742 18.1755V26.5873C25.3742 26.8371 25.2746 26.9621 25.0754 26.9621H23.747C23.5562 26.9621 22.679 25.3962 21.1154 22.2644Z" fill="white"/>
<path d="M26.208 20.941C26.208 19.8886 26.649 19.0378 27.531 18.3886C28.125 18.0046 28.7412 17.812 29.3796 17.8108V17.8216C29.4097 17.8085 29.4414 17.7996 29.4739 17.7949C29.7926 17.8059 30.1095 17.847 30.4204 17.9177C30.7393 17.9983 31.045 18.1246 31.3279 18.2924C31.5384 18.4031 31.806 18.6403 32.1307 19.0042C32.3053 19.2374 32.4504 19.4914 32.5627 19.7602C32.7216 20.1346 32.8009 20.6232 32.8007 21.2261V23.5376C32.8007 24.1403 32.7214 24.6307 32.5627 25.009C32.4493 25.2751 32.3043 25.5266 32.1307 25.7581C31.806 26.1253 31.5384 26.3642 31.3279 26.4749C31.045 26.6428 30.7393 26.769 30.4204 26.8496C30.1095 26.9203 29.7926 26.9614 29.4739 26.9724C29.4414 26.968 29.4097 26.959 29.3796 26.9458V26.9566C28.7412 26.9566 28.125 26.764 27.531 26.3788C26.649 25.7308 26.208 24.8788 26.208 23.8228V20.941ZM30.8686 21.0745C30.8686 20.2542 30.5198 19.7622 29.8224 19.5985C29.7634 19.5808 29.6527 19.5719 29.4905 19.5719C28.8924 19.5719 28.4754 19.8359 28.2395 20.3639C28.1968 20.5278 28.1635 20.694 28.1398 20.8618V23.9009C28.1627 24.0686 28.196 24.2348 28.2395 24.3984C28.4756 24.9298 28.8926 25.1954 29.4905 25.1954C29.6528 25.1954 29.7634 25.1868 29.8224 25.1688C30.5201 25.0008 30.8688 24.5068 30.8686 23.6867V21.0745Z" fill="white"/>
<path d="M33.2717 17.9004C33.3794 17.901 33.4852 17.9289 33.5792 17.9814C33.678 18.0341 33.7594 18.1146 33.8132 18.2129C33.8677 18.308 33.8964 18.4157 33.8964 18.5254C33.8964 18.635 33.8677 18.7427 33.8132 18.8378C33.7598 18.9355 33.6794 19.0159 33.5817 19.0693C33.4869 19.1236 33.3795 19.1521 33.2703 19.1521C33.1611 19.1521 33.0537 19.1236 32.9589 19.0693C32.8611 19.0159 32.7806 18.9356 32.7271 18.8378C32.6723 18.7428 32.6436 18.635 32.6436 18.5254C32.6436 18.4157 32.6723 18.3079 32.7271 18.2129C32.7809 18.1146 32.8622 18.0341 32.9611 17.9814C33.0561 17.9285 33.163 17.9006 33.2717 17.9004ZM33.2717 18.0041C33.1818 18.0046 33.0936 18.0279 33.0151 18.0718C32.9326 18.116 32.8648 18.1831 32.8196 18.2651C32.7739 18.3443 32.7499 18.4341 32.7499 18.5255C32.7499 18.617 32.7739 18.7068 32.8196 18.786C32.8645 18.8674 32.9317 18.9343 33.0133 18.979C33.0922 19.0245 33.1817 19.0484 33.2728 19.0484C33.3639 19.0484 33.4535 19.0245 33.5324 18.979C33.6138 18.9342 33.6808 18.8673 33.7257 18.786C33.7712 18.7067 33.7952 18.6169 33.7952 18.5255C33.7952 18.4341 33.7712 18.3443 33.7257 18.2651C33.6809 18.183 33.6131 18.1158 33.5306 18.0718C33.4514 18.0276 33.3624 18.0043 33.2717 18.0041ZM32.9956 18.8724V18.1992H33.2271C33.285 18.1965 33.3429 18.2028 33.3988 18.2179C33.4334 18.2296 33.4632 18.2523 33.4834 18.2827C33.5037 18.3118 33.5146 18.3463 33.5147 18.3817C33.5151 18.4054 33.5108 18.429 33.502 18.4511C33.4932 18.4731 33.4802 18.4932 33.4636 18.5102C33.4265 18.5476 33.3766 18.5695 33.3239 18.5714C33.345 18.5799 33.3644 18.5921 33.3812 18.6074C33.419 18.6482 33.4523 18.693 33.4805 18.741L33.5626 18.8728H33.4301L33.3704 18.7666C33.3421 18.708 33.3036 18.655 33.2566 18.61C33.2311 18.5928 33.2006 18.5846 33.1699 18.5866H33.1058V18.8728L32.9956 18.8724ZM33.1036 18.4937H33.2354C33.2804 18.4981 33.3256 18.4882 33.3646 18.4652C33.376 18.4565 33.3852 18.4452 33.3915 18.4323C33.3977 18.4193 33.4009 18.4051 33.4006 18.3907C33.4009 18.3715 33.3951 18.3528 33.3841 18.3371C33.3725 18.3208 33.3565 18.3083 33.338 18.3011C33.3028 18.2916 33.2664 18.2877 33.23 18.2896H33.1065L33.1036 18.4937Z" fill="white"/>
<path d="M22.9742 10.442C23.0509 10.442 23.126 10.4192 23.1898 10.3766C23.2536 10.3339 23.3034 10.2733 23.3327 10.2024C23.3621 10.1315 23.3698 10.0535 23.3548 9.97818C23.3398 9.9029 23.3029 9.83375 23.2486 9.77948C23.1943 9.7252 23.1252 9.68824 23.0499 9.67327C22.9746 9.65829 22.8966 9.66598 22.8257 9.69535C22.7548 9.72472 22.6942 9.77447 22.6515 9.83829C22.6089 9.9021 22.5861 9.97714 22.5861 10.0539C22.5861 10.1568 22.627 10.2555 22.6998 10.3283C22.7726 10.4011 22.8713 10.442 22.9742 10.442ZM18.3518 9.40625V9.87713C15.0805 9.87713 12.4287 11.1944 12.4287 12.8191C12.4287 14.4751 15.0805 15.8186 18.3518 15.8186C21.631 15.8186 24.2893 14.447 24.2893 12.755C24.2893 10.9057 21.631 9.40697 18.3518 9.40697" fill="white"/>
<path d="M22.9278 9.93751H22.9638C22.9735 9.93721 22.9831 9.93818 22.9926 9.94039C22.9991 9.94218 23.0051 9.94537 23.0102 9.94975C23.0147 9.95335 23.018 9.95826 23.0196 9.96379C23.0213 9.96926 23.0222 9.97497 23.0221 9.98071C23.0223 9.98691 23.0214 9.99309 23.0192 9.9989C23.017 10.0047 23.0137 10.01 23.0095 10.0146C22.9958 10.0244 22.9791 10.0288 22.9623 10.0272H22.9263V9.93751M22.8543 10.2129C22.8651 10.2157 22.8763 10.2168 22.8875 10.2162C22.8981 10.2169 22.9088 10.2158 22.9191 10.2129C22.9214 10.2119 22.9234 10.2103 22.9247 10.2081C22.9259 10.206 22.9265 10.2035 22.9263 10.201V10.0884H22.9476C22.9618 10.0874 22.976 10.0915 22.9875 10.0999C22.9986 10.1116 23.0064 10.126 23.0102 10.1416L23.0271 10.1967C23.0279 10.2005 23.0295 10.2041 23.0318 10.2072L23.0401 10.2126C23.0445 10.2142 23.0491 10.2151 23.0538 10.2154H23.0754H23.0999L23.1135 10.2133L23.1197 10.2093V10.2036C23.1187 10.1954 23.1167 10.1875 23.1139 10.1798L23.0945 10.1287C23.0886 10.1113 23.0787 10.0955 23.0657 10.0826C23.0553 10.073 23.043 10.0656 23.0297 10.061C23.0509 10.0566 23.0705 10.0462 23.0862 10.0311C23.0935 10.023 23.0991 10.0135 23.1027 10.0032C23.1063 9.99284 23.1078 9.9819 23.1071 9.97099C23.1075 9.95609 23.1044 9.94128 23.0981 9.92779C23.0922 9.91573 23.0833 9.90542 23.0721 9.89791C23.0595 9.8892 23.0451 9.8832 23.03 9.88027C23.0115 9.87601 22.9925 9.87395 22.9735 9.87415H22.8831C22.8782 9.87382 22.8733 9.87458 22.8686 9.87639C22.864 9.87819 22.8599 9.88099 22.8565 9.88459C22.8503 9.89246 22.8472 9.90233 22.8479 9.91232V10.2003C22.8478 10.2029 22.8485 10.2054 22.8499 10.2075C22.8513 10.2097 22.8534 10.2113 22.8558 10.2122M22.9735 9.80323C23.0237 9.80151 23.0732 9.81482 23.1158 9.84144C23.1583 9.86806 23.192 9.90679 23.2124 9.95266C23.2328 9.99853 23.239 10.0494 23.2303 10.0989C23.2216 10.1483 23.1983 10.194 23.1634 10.2301C23.1285 10.2663 23.0837 10.2911 23.0346 10.3016C22.9855 10.312 22.9344 10.3076 22.8878 10.2888C22.8413 10.27 22.8014 10.2377 22.7733 10.1961C22.7452 10.1545 22.7302 10.1054 22.7301 10.0552C22.7295 10.0227 22.7353 9.99035 22.7472 9.96006C22.7591 9.92977 22.7769 9.90213 22.7995 9.87872C22.8221 9.85531 22.8491 9.83659 22.879 9.82364C22.9088 9.81068 22.941 9.80375 22.9735 9.80323ZM22.9735 10.3681C23.0356 10.368 23.0962 10.3495 23.1478 10.315C23.1994 10.2805 23.2396 10.2314 23.2633 10.174C23.287 10.1167 23.2931 10.0536 23.281 9.99269C23.2688 9.93182 23.2389 9.87592 23.195 9.83205C23.1511 9.78819 23.0951 9.75832 23.0342 9.74624C22.9734 9.73416 22.9103 9.74039 22.8529 9.76416C22.7956 9.78793 22.7466 9.82817 22.7121 9.87979C22.6776 9.9314 22.6592 9.99208 22.6592 10.0542C22.6592 10.0954 22.6674 10.1363 22.6832 10.1744C22.6989 10.2125 22.7221 10.2471 22.7513 10.2763C22.7805 10.3054 22.8151 10.3285 22.8533 10.3443C22.8914 10.36 22.9322 10.3681 22.9735 10.3681ZM20.0413 9.74059C20.0184 9.80238 19.9878 9.86104 19.9502 9.91519C20.7815 10.0988 21.6638 10.4138 22.296 10.8699C22.3012 10.8731 22.305 10.8782 22.3067 10.8841C22.3084 10.89 22.3078 10.8963 22.305 10.9018C22.3022 10.9073 22.2975 10.9115 22.2918 10.9137C22.2861 10.9158 22.2797 10.9158 22.274 10.9135C21.2016 10.3562 19.7987 10.074 18.35 10.074C15.2918 10.074 12.8125 11.303 12.8125 12.8193C12.8125 14.3673 15.2918 15.6219 18.35 15.6219C21.4158 15.6219 23.9012 14.3385 23.9012 12.7556C23.9012 11.3437 22.2812 10.1481 20.0402 9.74059" fill="#40B93C"/>
<path d="M21.3321 14.8309C21.3659 14.824 21.3775 14.8568 21.3461 14.8694C20.5595 15.188 19.4709 15.3684 18.3509 15.3684C15.6279 15.3684 13.4189 14.2275 13.4189 12.8199C13.4189 11.4123 15.6265 10.2715 18.3509 10.2715C21.4185 10.2715 23.297 11.5963 23.2873 12.7555C23.2779 13.7779 21.9218 14.7445 19.1779 14.7445C18.0345 14.7445 16.5859 14.531 15.4252 14.0659C15.3734 14.045 15.3489 14.1195 15.3957 14.144C16.6654 14.8219 18.9655 15.296 21.3321 14.8305" fill="#0B4919"/>
<path d="M18.3509 15.3684C15.6279 15.3684 13.4189 14.2275 13.4189 12.8199C13.4189 11.4123 15.6265 10.2715 18.3509 10.2715C21.4066 10.2715 23.2829 11.5858 23.2873 12.7422V12.7558C23.2779 13.7782 21.9218 14.7448 19.1779 14.7448C18.0345 14.7448 16.5859 14.5314 15.4252 14.0662C15.4196 14.0639 15.4136 14.0627 15.4076 14.0626C15.4025 14.063 15.3976 14.0643 15.393 14.0665C15.3885 14.0688 15.3844 14.0719 15.3811 14.0757C15.3777 14.0795 15.3752 14.0839 15.3735 14.0887C15.3719 14.0935 15.3712 14.0986 15.3716 14.1037C15.3715 14.1121 15.3738 14.1204 15.3782 14.1276C15.3826 14.1348 15.3889 14.1406 15.3964 14.1444C16.3133 14.634 17.7677 15.0163 19.3964 15.0163C20.0459 15.0169 20.6939 14.9549 21.3314 14.8309C21.3343 14.8305 21.3372 14.8305 21.34 14.8309C21.3551 14.8309 21.3641 14.8395 21.3638 14.8492C21.363 14.8541 21.3609 14.8587 21.3576 14.8624C21.3544 14.8661 21.3502 14.8687 21.3454 14.8701C20.5588 15.1887 19.4702 15.3691 18.3502 15.3691M18.3563 10.35H18.3488C17.8862 10.3491 17.4242 10.3833 16.9667 10.4522C16.016 10.5962 15.2056 10.8878 14.6548 11.2672C14.4804 11.3839 14.323 11.5241 14.1868 11.6838C14.0698 11.8199 13.9817 11.9784 13.928 12.1496C13.877 12.3193 13.8714 12.4994 13.9118 12.672C13.9598 12.8594 14.0494 13.0336 14.1739 13.1817C14.3057 13.3531 14.462 13.5041 14.6379 13.6299C15.1883 14.0094 16.0167 14.2959 16.9675 14.4403C17.4253 14.5044 17.8872 14.5342 18.3495 14.5296C18.8618 14.5296 19.2592 14.5108 19.7301 14.4403C20.7928 14.2804 21.5492 13.9723 22.0726 13.6231C22.2667 13.4888 22.3999 13.3326 22.5244 13.1792C22.6491 13.0311 22.7383 12.8565 22.7854 12.6687C22.8269 12.4964 22.8221 12.3162 22.7714 12.1464C22.7174 11.9754 22.6295 11.8171 22.5129 11.6809C22.3764 11.5217 22.219 11.3817 22.0449 11.2647C21.5114 10.8972 20.6513 10.5854 19.733 10.4515C19.2776 10.3822 18.8176 10.348 18.3571 10.3492" fill="#0A4919"/>
<path d="M18.3254 14.6769C20.8603 14.6769 22.9154 13.6212 22.9154 12.3189C22.9154 11.0167 20.8603 9.96094 18.3254 9.96094C15.7904 9.96094 13.7354 11.0167 13.7354 12.3189C13.7354 13.6212 15.7904 14.6769 18.3254 14.6769Z" fill="url(#paint0_radial_1557_12806)"/>
<path d="M21.408 12.301C21.3543 12.8586 21.1344 13.417 20.787 13.417C20.6451 13.417 20.5429 13.3047 20.5429 13.1185C20.5429 12.6369 20.9241 12.1426 21.408 12.301ZM21.9332 12.256C21.9652 12.085 21.9181 12.0112 21.7644 11.968C20.7564 11.6836 19.9896 12.328 19.9896 13.2013C19.9896 13.534 20.1559 13.8468 20.518 13.8468C20.806 13.8468 21.071 13.6463 21.2568 13.4213C21.2514 13.5041 21.2545 13.5872 21.2658 13.6693C21.296 13.8256 21.4555 13.9055 21.8173 13.7881C21.7618 13.5646 21.7888 13.0257 21.9332 12.2542V12.256ZM19.6328 12.6437C19.8088 11.7286 19.8578 11.2275 19.8578 11.0683C19.8578 11.0244 19.8373 10.9553 19.6954 10.9553C19.5472 10.9519 19.4007 10.9876 19.2706 11.0586C19.2854 11.1123 19.3318 11.4989 18.9942 13.0937C18.8502 13.7716 18.9794 13.9217 19.5493 13.8227C19.496 13.6542 19.496 13.345 19.6328 12.6419V12.6437ZM18.686 11.8917C18.4498 11.8917 18.146 12.1174 17.9638 12.4968C17.9876 12.3255 17.9998 12.1203 17.9804 12.004C17.9743 11.9662 17.9512 11.9352 17.8386 11.9403C17.7018 11.9509 17.5687 11.9892 17.4472 12.0529C17.4472 12.0529 17.5304 12.2812 17.3475 13.4361C17.2921 13.7853 17.5308 13.8871 17.9296 13.8227C17.7734 13.5973 18.0585 12.1998 18.709 12.4882C18.9654 12.0871 18.8952 11.8899 18.686 11.8899V11.8917ZM15.4838 12.7657C15.6573 12.4335 15.9075 12.0612 16.0389 11.7855C16.0634 12.0299 16.1682 12.7071 16.1682 12.7071C15.9386 12.7011 15.7092 12.7202 15.4838 12.7639V12.7657ZM17.0779 13.8097C16.8716 13.4469 16.6567 12.4979 16.4475 11.2775C16.4324 11.1879 16.4155 11.1591 16.3395 11.1601C16.2362 11.1601 15.9676 11.1897 15.8604 11.2289C15.7822 11.4269 15.6717 11.6163 15.3063 12.1699C14.3811 13.5739 14.3379 13.9487 15.1479 13.8227C15.1285 13.6953 15.1371 13.5073 15.2887 13.2186C15.2887 13.2186 15.4831 13.1106 16.2366 13.1023C16.3752 13.8727 16.4886 13.8799 17.0775 13.8097" fill="white"/>
<path d="M16.2554 9.47814C15.9696 9.6747 15.9887 10.2385 16.3148 10.6363C16.641 11.0341 17.1526 11.0953 17.4838 10.9174C17.4193 11.2882 17.6209 11.6763 18.3802 11.4304C19.1459 11.1827 19.1862 10.669 19.0321 10.2925C19.4612 10.3238 19.9141 10.1445 20.057 9.69882C20.1614 9.37266 20.0956 8.97018 19.7539 8.76282C19.7705 8.29482 19.1909 7.88946 18.6214 7.90062C18.3283 7.90638 18.1433 8.0925 18.1332 8.33262C17.7548 7.91502 17.2436 7.90494 16.7494 8.32866C16.2734 8.7369 16.1874 9.30714 16.4362 9.54474C16.3739 9.5284 16.3136 9.50559 16.2562 9.4767" fill="white"/>
<mask id="mask0_1557_12806" style="mask-type:luminance" maskUnits="userSpaceOnUse" x="16" y="8" width="4" height="4">
<path d="M16.592 10.6676C17.3941 11.2472 17.9841 10.1662 17.8905 10.0535C17.6807 9.80148 17.8247 9.40008 18.2685 9.46308C18.5015 9.4962 18.2012 8.19228 17.4827 8.19228C16.8167 8.19228 15.8497 9.39108 17.0294 9.78348C16.7897 9.79104 16.4761 9.76872 16.2954 9.68772C16.1373 9.84828 16.2273 10.4005 16.592 10.6676ZM19.7528 8.96484C19.6697 9.06852 19.5109 9.21288 19.3867 9.24096C19.9706 8.54184 19.1394 8.06232 18.6282 8.07852C18.4795 8.0832 18.3477 8.14116 18.3179 8.2902C18.2408 8.67324 18.5789 9.11388 18.4619 9.68412C18.3837 10.0718 19.6736 10.4477 19.9105 9.58908C19.9537 9.43968 19.9404 9.11748 19.7528 8.96484ZM18.3092 9.96816C18.6879 9.89616 19.4454 10.9096 18.3276 11.2699C16.992 11.7005 17.9773 10.0304 18.3092 9.96816Z" fill="white"/>
</mask>
<g mask="url(#mask0_1557_12806)">
<path d="M16.592 10.6676C17.3941 11.2472 17.9841 10.1662 17.8905 10.0535C17.6807 9.80148 17.8247 9.40008 18.2685 9.46308C18.5015 9.4962 18.2012 8.19228 17.4827 8.19228C16.8167 8.19228 15.8497 9.39108 17.0294 9.78348C16.7897 9.79104 16.4761 9.76872 16.2954 9.68772C16.1373 9.84828 16.2273 10.4005 16.592 10.6676ZM19.7528 8.96484C19.6697 9.06852 19.5109 9.21288 19.3867 9.24096C19.9706 8.54184 19.1394 8.06232 18.6282 8.07852C18.4795 8.0832 18.3477 8.14116 18.3179 8.2902C18.2408 8.67324 18.5789 9.11388 18.4619 9.68412C18.3837 10.0718 19.6736 10.4477 19.9105 9.58908C19.9537 9.43968 19.9404 9.11748 19.7528 8.96484ZM18.3092 9.96816C18.6879 9.89616 19.4454 10.9096 18.3276 11.2699C16.992 11.7019 17.9773 10.0304 18.3092 9.96816Z" fill="url(#paint1_radial_1557_12806)"/>
</g>
</g>
<defs>
<radialGradient id="paint0_radial_1557_12806" cx="0" cy="0" r="1" gradientUnits="userSpaceOnUse" gradientTransform="translate(18.4007 12.2598) scale(4.46382 1.79473)">
<stop stop-color="#40B93C"/>
<stop offset="0.17" stop-color="#40B93C" stop-opacity="0.98"/>
<stop offset="0.32" stop-color="#41B93D" stop-opacity="0.93"/>
<stop offset="0.46" stop-color="#41BA3D" stop-opacity="0.83"/>
<stop offset="0.59" stop-color="#42BA3E" stop-opacity="0.7"/>
<stop offset="0.72" stop-color="#43BA3F" stop-opacity="0.52"/>
<stop offset="0.85" stop-color="#45BB41" stop-opacity="0.31"/>
<stop offset="0.97" stop-color="#47BC43" stop-opacity="0.07"/>
<stop offset="1" stop-color="#47BC43" stop-opacity="0"/>
</radialGradient>
<radialGradient id="paint1_radial_1557_12806" cx="0" cy="0" r="1" gradientUnits="userSpaceOnUse" gradientTransform="translate(17.2504 10.691) rotate(-7.18911) scale(2.83548)">
<stop stop-color="#FDE17B"/>
<stop offset="0.3" stop-color="#FCD205"/>
<stop offset="1" stop-color="#F89C0E"/>
</radialGradient>
<clipPath id="clip0_1557_12806">
<rect width="36" height="36" fill="white" transform="translate(0.34375 0.0605469)"/>
</clipPath>
</defs>
</svg>
