<svg width="126" height="37" viewBox="0 0 126 37" fill="none" xmlns="http://www.w3.org/2000/svg">
<g clip-path="url(#clip0_1557_12792)">
<path d="M35.722 20.0076H26.6934H26.6759L26.6298 20.0559L26.6539 20.0954L26.5222 20.1415L26.4498 20.2403H26.3444L26.2961 20.2557V20.2842L26.2412 20.3479V20.394L26.2676 20.4137L26.2017 20.5125L26.1402 20.5915V20.6947L26.0832 20.8176L25.9427 21.0218L25.8593 21.0569H25.811L25.8307 21.0788V21.1381L25.8044 21.1776L25.721 21.4345L25.6573 21.5969V21.6869L25.7671 21.7813L25.8483 21.8735H25.901L25.9515 22.0162L25.9295 22.0623L25.8966 22.0513L25.8505 22.082L25.8263 22.1764V22.3191L25.8834 22.3762V22.4684L25.8307 22.5123L25.8439 22.5979L25.8856 22.701H25.8637L25.8878 22.7493L25.9032 22.824L25.9493 22.8635L25.9098 22.9271L25.9471 22.971L25.9866 23.0874L25.9734 23.1466L26.1117 23.2784L26.2127 23.2937L26.2961 23.364V23.4035L26.3246 23.421L26.3115 23.5132L26.2895 23.5593L26.3115 23.5769L26.2302 23.691V23.7327L26.2456 23.7613V23.7854L26.2149 23.814L26.2324 23.9523L26.2763 24.0357L26.2544 24.0598V24.1586L26.2763 24.1827V24.2793L26.2346 24.3188L26.25 24.422L26.2215 24.6152H26.2061L26.2281 24.6481V24.8215H26.1688V24.8435L26.1885 24.872H26.2654L26.2873 24.8896L26.3049 25.0388L26.2654 25.0959L26.2237 25.1179L26.2478 25.153V25.1903H26.1973L26.1424 25.2474L26.1578 25.2671L26.1754 25.2518H26.2237L26.1885 25.3023V25.3813H26.1402L26.0546 25.4888V25.5371L25.9778 25.6425H25.9142V25.7149L25.6551 25.8554H25.6178L25.5981 25.9103L25.35 26.042H25.2556V26.0618L25.1415 26.1145L24.9856 26.2176L24.9483 26.1913V26.2396L24.8539 26.3559L24.8056 26.3779L24.7793 26.3142L24.7617 26.4152L24.7178 26.4284L24.7024 26.4854L24.5466 26.5798V26.6193L24.5071 26.6544L24.4698 26.6654V26.7203H24.3688L24.1493 26.8586V26.9464L24.0812 26.9969H23.989L23.9495 27.0474L23.8771 27.0013H23.8354V27.0605L23.8727 27.1044V27.1659L23.8442 27.2054V27.2625L23.8024 27.324L23.9144 27.4754V27.5281L23.8661 27.5676L23.9034 27.5852L23.9451 27.6532V27.7454L23.9912 27.831L23.9715 28.0725L23.9934 28.1581H24.022V28.0901L24.0659 27.9979V28.0791H24.0834V28.1844L24.0527 28.224V28.3293L24.0702 28.3447L24.0242 28.4676V28.5335L23.989 28.5774V28.6564H23.9671L23.9824 28.7244L24.0417 28.6893L24.0549 28.7332L24.0066 28.8057L23.9824 28.9066L23.842 29.0559L23.5895 29.1701L23.2493 29.2381L23.1176 29.3632L23.0188 29.3874L22.9881 29.4335L22.9398 29.473L22.9112 29.5696H22.8717L22.8344 29.5937L22.852 29.6157L22.8893 29.6859V29.7562L22.9244 29.7101L22.9793 29.7276L22.9968 29.6618H23.0232V29.6947L23.0078 29.8044L22.9683 29.8681V29.9471L22.9222 30.0086H22.9442L22.8981 30.1491L22.8849 30.2698L22.8278 30.3862L22.7905 30.5354L22.7334 30.6035L22.7159 30.6715L22.6127 30.7923H22.5776L22.5556 30.8252L22.4766 30.8625L22.4393 30.9064L22.3449 30.9679L22.2988 31.0601L22.222 31.1479V31.1852L22.1781 31.2686H22.1034L22.0442 31.3827L21.8905 31.6703L21.7654 31.7866L21.7456 31.8964L21.6732 31.9271L21.6051 32.0084H21.5656L21.5481 32.0391L21.142 32.4386H21.0937V32.4584L21.0278 32.533L20.7622 32.7042L20.7051 32.7657L20.6107 32.7942V32.8184L20.4615 32.8579L20.3781 32.9105H20.2902L20.2463 32.8776H20.1278L20.0312 32.9084L19.9895 32.9786L20.0466 33.0269V33.0488H19.9105L19.8315 33.0093H19.7678L19.7129 33.0642L19.7371 33.1125L19.7129 33.1366L19.5263 33.0971L19.4737 33.0554L19.2937 33.0115L19.1773 33.0335V33.062L19.1159 33.084L19.0259 33.0357H18.8173L18.7559 33.0642L18.7383 33.1301L18.6966 33.1103L18.6483 33.1235L18.6044 33.1586L18.5824 33.1893H18.4902L18.4288 33.2157L18.3146 33.174L18.2224 33.2069L18.2049 33.2332L18.1105 33.2135L18.0271 33.3079L17.9568 33.321L17.9327 33.3781L17.891 33.3627L17.8537 33.3803L17.6605 33.2903L17.621 33.3123V33.2201L17.5485 33.1805L17.4915 33.2091L17.4563 33.1937L17.4871 33.1674L17.4673 33.0862L17.3773 33.0708L17.3115 33.1279V33.1981L17.2632 33.1608V33.0818L17.2895 33.0159L17.272 32.9193L17.3246 32.8315L17.2566 32.7086L17.1885 32.6471L17.1249 32.5484V32.4474L17.1666 32.4101L17.2039 32.4496H17.239L17.2851 32.3991L17.3071 32.2805L17.2654 32.1488V32.0896L17.1556 31.9052V31.8196L17.0481 31.6791L16.9976 31.4596L16.9054 31.2313V31.1215L16.822 30.8844L16.6968 30.7923L16.6749 30.6671L16.5432 30.5727L16.5212 30.5179L16.429 30.4257L16.3346 30.2391L16.2644 30.1425V29.9932L16.2029 29.9252V29.8462L16.2446 29.8154L16.2095 29.7452L16.1568 29.7166L16.1283 29.5147L16.0822 29.4554L16.1371 29.4203L16.102 29.3084L16.1151 29.1437L15.9988 28.8386V28.5401L15.9439 28.3403L15.9922 28.3183V28.1581L15.7881 27.8618V27.752L15.5927 27.4754L15.5641 27.302L15.371 26.863L15.2481 26.6435L15.0285 26.4086L15.0066 26.0771V26.0376L15.0241 25.9147V25.7259L15.0417 25.603V25.4625L15.1493 25.333L15.1712 25.1859L15.2656 25.0608V24.7491L15.3007 24.7205V24.591L15.5202 24.4023V24.3079L15.6915 24.1784H15.7376L15.8912 23.8908V23.5505L15.8429 23.4913V23.4276L15.6959 23.1862V23.0852L15.6366 22.9908V22.8503L15.5663 22.8152L15.6893 22.6571L15.7068 22.5035L15.5905 22.3388V22.0359L15.371 21.7944V21.7396L15.3293 21.6891L15.4412 21.6276L15.3688 21.6035H15.2568L15.2371 21.5574L15.2173 21.5113L15.2612 21.4301L15.2349 21.3181L15.1866 21.2676L15.1427 21.2171L15.1493 21.1337L15.0878 21.0657V20.9954L14.9715 20.9208L14.9298 20.8791L14.8529 20.8044L14.8354 20.7869L14.7673 20.7605L14.7629 20.6947L14.6224 20.6266L14.5851 20.541L14.4095 20.4005L14.3042 20.2886L14.3327 20.2688L14.2339 20.1854L14.1922 20.0954L14.1329 20.0362V19.9176L14.0627 19.8276V19.7662L14.0188 19.731L13.9376 19.5598V19.5203L14.032 19.551L14.1066 19.4896L14.1242 19.2701L14.1351 19.1625L14.179 19.2064L14.3502 19.1647L14.2295 19.1362L14.1527 19.0132L14.2361 19.0001V18.9079V18.8859L14.1395 18.8354L14.2361 18.651L14.359 18.5127L14.3305 18.4447L14.3459 18.4293L14.4073 18.3701L14.3502 18.3108L14.4029 18.1747L14.3898 18.0254L14.3195 17.9266V17.8169L14.3459 17.7664L14.2866 17.6742L14.1724 17.7225L14.1373 17.683H14.0693L14.0232 17.4437L13.9617 17.4766L13.909 17.4525L13.8805 17.4701L13.8146 17.402L13.7751 17.5118L13.6763 17.5315L13.6127 17.4942L13.4327 17.5601L13.3932 17.5359L13.3163 17.582L12.941 17.604L12.8005 17.5644L12.6995 17.4744L12.6556 17.3384L12.6029 17.312V17.1825L12.5063 16.9937L12.3483 16.8401L12.0629 16.6886L11.94 16.7391L11.7885 16.7084H11.7732L11.5054 16.7984L11.3671 16.7808H11.3254L11.1168 16.9103H11.0839L10.8644 16.9366L10.68 17.0266L10.4781 17.1957L10.2432 17.2176L9.90732 17.3779L9.75586 17.3098L9.53634 17.2813L9.51659 17.2462L9.46171 17.143L9.38708 17.1605L9.36952 17.2571L9.20049 17.1825L9.00513 17.2462H8.49147L8.34439 17.2659V17.3054L8.07439 17.402L8.04586 17.4415H7.96025L7.82415 17.5579L7.78903 17.5447L7.40488 17.402L7.10854 17.1825H7.02732L6.78586 16.941H6.7683L6.62342 16.8444H6.56415L6.46537 16.7018L6.40171 16.6732L6.43025 16.6184H6.41927L6.36878 16.5613H6.22171L6.01537 16.4537L5.92756 16.4318L5.94952 16.3835L5.89244 16.322L5.84415 16.2737L5.87708 16.2079V16.1903L5.79805 16.2188L5.71025 16.1244V16.0366L5.67073 15.9137H5.5961L5.56756 15.8523L5.62025 15.7535L5.56537 15.7227V15.6635L5.60708 15.591L5.55 15.5449L5.44464 15.4901L5.41391 15.3715H5.33269L5.29756 15.3364V15.2749L5.3283 15.2442L5.27122 15.2069L5.2361 15.2574L5.17683 15.2332H5.08903L5.00122 15.1125L5.03634 14.9698L4.97488 14.9018L4.88269 14.9281L4.86293 14.9062V14.8403L4.6983 14.8579L4.79049 14.7591H4.74659L4.76854 14.724L4.73342 14.6845H4.66976L4.64561 14.6515H4.8322L4.86513 14.6274L4.76195 14.5484L4.66756 14.5681L4.56878 14.6032H4.52488L4.50293 14.5484H4.42391L4.35366 14.4781L4.42391 14.4232H4.37122H4.24171L4.20878 14.364V14.2893L4.17366 14.2476L4.23952 14.2652L4.28122 14.2784L4.36464 14.2257L4.23293 14.1796L4.14513 14.2257L4.12537 14.1971L4.16269 14.1554V14.0391L4.11878 13.982L4.18683 13.914L4.26586 14.0149H4.37122L4.43049 13.9601L4.34269 13.9842L4.24171 13.9337L4.22415 13.8744L4.21317 13.8437L4.26586 13.8042L4.17366 13.7384H4.20439V13.6593L4.13195 13.6484L4.04634 13.4991L3.91464 13.3915L4.1583 13.172L4.25927 12.9898L4.27464 12.8625L4.29659 12.7044L4.35805 12.463L4.45244 12.3313L4.47878 12.0525L4.40195 11.6508L4.29439 11.4752L4.3383 11.4423H4.39317L4.42171 11.3105L4.39317 11.2249L4.44366 11.1744L4.33171 11.0076L4.28561 11.0449L4.2483 11.0362L4.21537 10.9418L4.12976 11.0362V10.8869L4.17366 10.7947V10.7793V10.652L4.21537 10.5686V10.472L4.27025 10.4127H4.31854L4.44147 10.1932L4.50952 10.1669L4.46122 10.1318V10.0944L4.61708 9.88811V9.82884L4.71366 9.60933L4.77073 9.5786L4.95293 9.40957L4.9661 9.29762L5.20537 8.95079L5.14391 8.84103L5.24927 8.77957L5.27561 8.70274L5.54561 8.56225H5.61586V8.40201L5.76732 8.1825L5.85952 8.05079L6.23927 7.98055L6.50927 7.74347H6.6322L6.74415 7.62274L6.77049 7.51518L7.01415 7.2386L7.04049 7.12664L6.99659 7.07177L6.96366 7.03884L7.01415 6.89396L6.95049 6.76445V6.68103L7.05147 6.47469L7.20732 6.33421V6.23982L7.14586 6.10591L7.32147 5.9786L7.37634 5.89518L7.47074 5.86445L7.62439 5.76128H7.68586L7.79342 5.64713L7.9361 5.59884L8.02171 5.53957H8.06342L8.23903 5.37713L8.29171 5.27616L8.30927 5.11591L8.39269 5.00616L8.40805 4.78664L8.48269 4.70323H8.54415L8.57488 4.67469L8.65171 4.64835L8.67366 4.67689L8.66049 4.69884V4.74274L8.67805 4.80421L8.71976 4.83713L8.82732 4.95128L8.91074 4.96884L9.02927 4.95128L9.11049 4.90738H9.17415L9.29927 4.9425L9.42439 4.91616L9.49244 4.84152H9.52098L9.54074 4.91616L9.58903 4.96445L9.80854 4.98201H9.86342H9.96659L10.0851 4.94469L10.1598 4.86347L10.1729 4.81738L10.2212 4.77347L10.3134 4.72518H10.4232L10.4451 4.69445L10.4868 4.66591H10.5395L10.5659 4.69006H10.6076L10.6559 4.6264V4.56713L10.7481 4.51006H10.8029L10.9105 4.49469L11.0993 4.34982L11.1849 4.36299H11.3341L11.4176 4.33445L11.5076 4.38274H11.5668L11.6656 4.28616L11.7402 4.31469H11.8215L11.861 4.23567L11.9093 4.22469L11.9795 4.24664H12.019L12.1002 4.25981L12.2034 4.24225L12.2517 4.25542H12.3571L12.4076 4.33445H12.4954L12.5744 4.27299H12.6359L12.6863 4.29274L12.7346 4.23128L12.8137 4.21591V4.16323L12.9037 4.14128L12.9585 4.18299V4.24445L13.0924 4.25981L13.1583 4.19396V4.15445L13.2637 4.19177L13.3493 4.2664L13.5139 4.21811L13.571 4.23128L13.6807 4.20933L13.7005 4.23347L13.8015 4.14567L13.942 4.07543L14.0451 4.05347L14.0846 4.11055V4.06006L14.1702 4.0425L14.2185 4.0864V4.15445L14.2581 4.16762L14.3151 4.30152L14.3546 4.32347L14.4007 4.27518L14.539 4.14786L14.5741 4.17421V4.25103L14.4973 4.36518V4.43542L14.4029 4.50128L14.3854 4.60225L14.4798 4.72957L14.5939 4.77347V4.90079L14.6224 4.92055L14.6378 4.97542L14.5961 5.01933L14.629 5.06542L14.6005 5.10933L14.4885 5.21908L14.2954 5.35518L14.2581 5.46933L14.3195 5.58128L14.4424 5.66689L14.4995 5.65372L14.5171 5.71299L14.5698 5.73713L14.5983 5.71299V5.68445L14.6224 5.66689L14.6817 5.69982V5.75469L14.6927 5.7964L14.809 5.86664H14.8551L14.9429 5.88421L15.0176 5.95445L15.2085 5.99616L15.4807 5.94567L15.5883 5.98738H15.8078L15.9395 6.07299L16.1876 6.10811L16.2863 6.23762V6.35835L16.4071 6.58884L16.5366 6.65469H16.6859L16.7276 6.63055L16.8527 6.64591L17.1424 6.76664L17.3224 6.85884L17.4388 6.95323L17.5881 7.07616L17.7571 7.14421L17.8383 7.11347L17.97 7.00152L17.9832 6.96421L18.0842 6.86323L18.1171 6.77542L18.0688 6.61957L17.9985 6.50981L18.0117 6.31006L18.06 6.27274L18.0842 6.16738L18.1785 6.07518L18.3432 5.99616L18.5341 5.9786L18.6549 5.91713H18.6834L18.7668 5.95884L18.8063 5.92372L18.8393 5.94128L18.9754 5.9764H19.0588L19.2234 6.0664V6.11469L19.1927 6.12567L19.2234 6.16957L19.3617 6.20689H19.4627L19.5154 6.25518L19.7766 6.28591L19.849 6.27494L19.9193 6.28591L19.9742 6.34957L20.0093 6.45713H20.0488H20.242L20.3912 6.50542L20.6942 6.52957L20.8193 6.55591L20.929 6.63274L20.9751 6.60421H21.019L21.131 6.67445H21.2627H21.3549L21.4954 6.76225H21.6249L21.6402 6.72713L21.7346 6.64591L21.8356 6.61299L21.8839 6.58664L21.9893 6.52957L22.0354 6.49664H22.1451H22.222L22.1605 6.52299H22.0859V6.54055L22.1122 6.56689L22.1978 6.53177H22.2724H22.3449V6.50542L22.2878 6.49445L22.3098 6.4703L22.4415 6.50542L22.5205 6.53177H22.5842L22.6171 6.56469L22.5798 6.58225L22.5973 6.6503L22.6763 6.69421L22.729 6.77323V6.72274L22.6566 6.64591L22.6742 6.58006L22.8168 6.67884L23.01 6.62616L23.2581 6.66786L23.3634 6.62616L23.4139 6.55811L23.4556 6.57786L23.5324 6.68982L23.572 6.83469L23.6817 7.00152L23.7673 7.20347L23.7344 7.29786L23.7849 7.42957L23.7695 7.45372L23.7102 7.67323V7.75664L23.6642 7.87299L23.6993 7.90811L23.6707 8.0464L23.6181 8.09689L23.6027 8.14299V8.12103L23.4995 8.06396L23.3129 7.8664L23.291 7.79396L23.1878 7.74786L23.1505 7.67103V7.59421L22.999 7.46689V7.4186L22.9639 7.37689L22.9376 7.27811H22.9002L22.8849 7.25396L22.8673 7.2803V7.33299V7.38567L22.9485 7.49103V7.57884L23.0934 7.75006L23.111 7.81152L23.3305 8.0025L23.3634 8.06396L23.3481 8.12543V8.1825L23.4798 8.32518V8.36908L23.5193 8.41957L23.5346 8.56884L23.5763 8.63469V8.71591L23.8002 9.06055L23.8178 9.1703L23.8815 9.21201L24.0351 9.43152L24.0702 9.53469L24.1141 9.58738V9.56103L24.1383 9.58079L24.202 9.67957H24.2393L24.2832 9.72567H24.169L24.1405 9.70152V9.73445L24.1668 9.78713V9.88372L24.1493 9.9386L24.2085 10.1427L24.3293 10.2196H24.4017L24.45 10.1976L24.4983 10.3008L24.5795 10.3249L24.6037 10.3732L24.6937 10.4654L24.7617 10.4918V10.5247V10.5598L24.7815 10.5905V10.6103L24.7946 10.6279V10.6432L24.81 10.6652L24.8363 10.7727L24.911 10.8627V10.9001H24.8934L24.8824 10.8759L24.8517 10.8386L24.8385 10.8518V10.922L24.9329 11.2008L24.9527 11.3544L24.9307 11.4971L24.9834 11.664L25.0537 11.7979L25.1173 11.811L25.2885 11.9252V11.9998H25.3676L25.451 12.0437V12.0986H25.4663L25.5563 12.1952L25.7188 12.621L25.7715 12.8998H25.8L25.822 13.003V13.0381L25.8746 13.0557L25.9076 13.1369L25.9273 13.2576L25.9954 13.2752V13.1654H25.9778V13.0864L26.0063 13.0732L26.0766 13.1742L26.0502 13.2027L26.1161 13.3015L26.16 13.3476L26.1995 13.3213H26.2566L26.2807 13.3366L26.3312 13.3191L26.4015 13.3981L26.4388 13.4442L26.5463 13.4705L26.5705 13.5101L26.7022 13.6571L26.7593 13.7559L26.8383 13.7888L26.8954 13.8569H26.9261V13.8349L26.9524 13.8701L27.0161 14.0325L27.0644 14.0457L27.1193 14.1159L27.1061 14.1401L27.1412 14.2169H27.1807L27.2246 14.2388L27.2554 14.2103L27.2685 14.2323H27.2883V14.2608L27.3783 14.3486H27.4024V14.3859L27.4156 14.5066L27.3761 14.522L27.3037 14.6032H27.2488L27.2093 14.6625H27.1259L27.1698 14.7152H27.1961L27.2554 14.6888H27.3563L27.3695 14.7152L27.3937 14.7635H27.4178L27.6615 15.0598L27.69 15.1191L27.7295 15.1301L27.8261 15.2179L27.9205 15.2398L28.0324 15.2266L28.0676 15.1827L28.1685 15.1213H28.2322L28.3617 15.0159H28.4012L28.4232 15.0379H28.5285L28.5659 15.0247L28.6427 15.0598L28.7568 15.0466L28.9917 14.9018L29.0685 14.8864L29.1454 14.9193L29.2024 14.9018H29.3078L29.4154 14.8469H29.5383L29.5756 14.8688H29.6151L29.8039 14.8337L29.8566 14.7679L29.9707 14.7525L30.0037 14.781V14.7481L30.1222 14.7349L30.1924 14.6669H30.2056L30.2363 14.612L30.2846 14.5659H30.3176V14.5484L30.3637 14.5813L30.4624 14.6164H30.5085H30.5261L30.4844 14.6757L30.4602 14.7371V14.8008L30.4383 14.8403L30.4559 14.8732H30.5151V14.8952L30.4734 14.9303L30.4405 15.0115L30.4734 15.0576L30.4866 15.1235L30.4581 15.1849H30.5107V15.1652H30.5349L30.559 15.2113L30.5327 15.2245V15.2091H30.4822H30.4493L30.3922 15.3057L30.4229 15.3562L30.4076 15.4484L30.3834 15.4901V15.591L30.2495 15.7776L30.1595 15.9708L30.1024 16.041H30.0717H35.7439C35.774 16.0411 35.8028 16.0286 35.8232 16.0065C35.8437 15.9844 35.8539 15.9547 35.8515 15.9247C35.8515 15.8742 35.8383 15.8259 35.8317 15.7776C35.7944 15.4725 35.7483 15.1696 35.6956 14.8688C35.6803 14.7766 35.6627 14.6823 35.6451 14.5901C35.5771 14.2388 35.5024 13.8898 35.4146 13.5452C35.4146 13.5188 35.3993 13.4947 35.3927 13.4684C35.3093 13.1479 35.2149 12.8296 35.1139 12.5157C35.0854 12.4257 35.0568 12.3357 35.0261 12.2479C34.9207 11.9405 34.8066 11.6376 34.6924 11.3369C34.6793 11.3084 34.6705 11.2776 34.6573 11.2491C34.5256 10.9242 34.3829 10.6059 34.2337 10.292C34.1942 10.2086 34.1524 10.1274 34.1129 10.0462C33.9827 9.78274 33.8466 9.52372 33.7046 9.26908L33.6124 9.10006C33.4412 8.80738 33.2612 8.51469 33.0724 8.22201L32.932 8.0025C32.7754 7.76689 32.6129 7.5364 32.4446 7.31103L32.2712 7.15079C32.0627 6.8786 31.8498 6.61079 31.6259 6.35177L31.4876 6.19591C31.2988 5.9764 31.1056 5.77006 30.9059 5.56372L30.7346 5.37274C30.4932 5.12908 30.2451 4.88982 29.9905 4.65933L29.8917 4.57591C29.6722 4.37177 29.4263 4.1764 29.1871 3.98542L28.9676 3.81201C28.6998 3.60567 28.4276 3.40372 28.1488 3.21274L28.129 3.19738C27.8415 3.00201 27.5473 2.81542 27.251 2.63542L27.0029 2.49713C26.7417 2.34567 26.4783 2.1986 26.2105 2.05811L26.07 1.98347C25.7627 1.82762 25.4466 1.68274 25.1283 1.54445L24.8846 1.44347C24.619 1.33152 24.349 1.22396 24.0768 1.12957L23.8573 1.05055C23.5281 0.936401 23.1988 0.831035 22.8542 0.736644L22.6346 0.675181C22.3537 0.600547 22.0705 0.532498 21.7829 0.471035L21.5217 0.413961C21.1727 0.343718 20.8215 0.282254 20.4637 0.233962L20.2881 0.21201C19.9785 0.172498 19.6756 0.141766 19.3639 0.11762L19.0742 0.0978639C18.7054 0.0759127 18.3366 0.0605469 17.9634 0.0605469H17.8976C17.5463 0.0605469 17.1929 0.0759127 16.8373 0.0978639L16.4663 0.128596C16.2161 0.148352 15.9659 0.174693 15.7156 0.205425C15.5576 0.225181 15.3951 0.242742 15.2371 0.266888H15.202C7.14496 1.52895 0.94601 8.05497 0.0995151 16.1662C0.0995151 16.2013 0.0995151 16.2364 0.0995151 16.2715C0.0665882 16.5086 0.0490273 16.7435 0.0358565 16.9849C0.0358565 17.0552 0.0358565 17.1254 0.0358565 17.2044C0.00292969 17.4701 0.00292969 17.7466 0.00292969 18.0254C0.00292969 18.0474 0.00292969 18.0693 0.00292969 18.0913C0.00292969 18.3481 0.00292969 18.6005 0.0204907 18.8552L0.0336614 19.0747C0.0468321 19.2942 0.062198 19.5137 0.0841492 19.7464L0.0973199 19.9023C0.125857 20.1701 0.160978 20.4357 0.200491 20.6991C0.200491 20.7649 0.220247 20.8286 0.231222 20.8944C0.264149 21.114 0.301466 21.3115 0.343174 21.5179C0.356344 21.5881 0.369515 21.6584 0.384881 21.7374C0.437564 21.9964 0.496832 22.2554 0.562686 22.5101C0.562686 22.5386 0.578052 22.5693 0.586832 22.5979C0.6461 22.8174 0.711954 23.0523 0.780003 23.2762L0.845857 23.4957C0.913905 23.7152 0.984149 23.9127 1.06537 24.1213C1.08073 24.163 1.09391 24.2069 1.10927 24.2486C1.19927 24.4923 1.29586 24.7337 1.39464 24.973L1.47366 25.1552C1.55488 25.3418 1.6383 25.5284 1.7261 25.7149L1.81391 25.8993C1.92805 26.132 2.03342 26.3603 2.16513 26.5864L2.22 26.683C2.32756 26.8805 2.43952 27.0737 2.55586 27.2669L2.67 27.4535C2.78634 27.6423 2.90488 27.8288 3.02781 28.0132C3.04976 28.044 3.06952 28.0769 3.09147 28.1098C3.23415 28.3293 3.38342 28.5291 3.53049 28.7354L3.65122 28.8957C3.77415 29.0559 3.89927 29.2162 4.02659 29.372C4.0683 29.4247 4.10781 29.4752 4.15171 29.5257C4.31415 29.721 4.48098 29.9142 4.6522 30.103L4.73781 30.1974C4.88488 30.3576 5.03635 30.5135 5.18781 30.6693L5.34147 30.823C5.50391 30.9832 5.66854 31.1391 5.83537 31.2927L5.90342 31.3564C6.0922 31.5298 6.28756 31.6966 6.48293 31.8591L6.64317 31.9886C6.79903 32.1159 6.95927 32.2432 7.12171 32.3662L7.27317 32.4803C7.47732 32.6318 7.68586 32.781 7.89659 32.9193L8.01732 32.9962C8.19512 33.1147 8.37513 33.231 8.55732 33.343L8.74391 33.4571C8.94586 33.5779 9.15 33.6964 9.35635 33.8105L9.42 33.8457C9.63952 33.9686 9.87659 34.0849 10.1093 34.1969L10.2981 34.2891C10.4846 34.3769 10.6734 34.4603 10.8622 34.5437L11.0334 34.6184C11.2727 34.7171 11.5141 34.8137 11.7578 34.9015L11.9071 34.9564C12.109 35.0266 12.311 35.0969 12.5151 35.1605L12.7346 35.2286C12.9739 35.301 13.2154 35.3691 13.4568 35.4327L13.4963 35.4437C13.7532 35.5096 14.0122 35.5688 14.2712 35.6237L14.4907 35.6654C14.7102 35.7071 14.9078 35.7444 15.1207 35.7796L15.3029 35.8081C15.5663 35.8476 15.832 35.8805 16.0976 35.9091L16.2754 35.9244C16.4949 35.9464 16.7144 35.9618 16.9339 35.9749L17.1534 35.9881C17.4278 35.9991 17.7044 36.0079 17.981 36.0079C18.2576 36.0079 18.5561 36.0079 18.8415 35.9881C18.9512 35.9881 19.061 35.9727 19.1642 35.9662C19.342 35.953 19.5176 35.9442 19.6932 35.9288C19.8073 35.9288 19.9127 35.9003 20.0312 35.8871C20.2002 35.8696 20.3671 35.852 20.5339 35.8279L20.8961 35.7686C21.052 35.7423 21.2056 35.7203 21.3593 35.6918C21.5129 35.6632 21.6095 35.6369 21.7346 35.6105C21.8598 35.5842 22.0288 35.5513 22.1737 35.5162C22.3185 35.481 22.4261 35.4503 22.5512 35.4174C22.6763 35.3844 22.8344 35.3449 22.9749 35.3054C23.1154 35.2659 23.2229 35.2286 23.3459 35.1891C23.4688 35.1496 23.6224 35.1057 23.7585 35.0596C23.8946 35.0135 24 34.9718 24.1207 34.9279C24.2415 34.884 24.3929 34.8313 24.529 34.7786C24.6651 34.7259 24.7683 34.6776 24.889 34.6271C25.0098 34.5766 25.1502 34.5218 25.2798 34.4647C25.4093 34.4076 25.5168 34.3527 25.6332 34.2979C25.7495 34.243 25.89 34.1793 26.0151 34.1179C26.1402 34.0564 26.2346 33.9971 26.3576 33.9357C26.4805 33.8742 26.6078 33.8062 26.7307 33.7381C26.8537 33.6701 26.9502 33.6086 27.0622 33.5427C27.1742 33.4769 27.3081 33.4023 27.4266 33.3232C27.5451 33.2442 27.6461 33.1849 27.7493 33.1147C27.8524 33.0444 27.9863 32.9632 28.1027 32.8842C28.219 32.8052 28.3112 32.7349 28.4166 32.6647C28.522 32.5944 28.6361 32.5044 28.7568 32.421L29.062 32.1818C29.1717 32.0962 29.2815 32.0127 29.389 31.9249L29.681 31.6703C29.7863 31.5803 29.9005 31.4925 29.9949 31.4003C30.0893 31.3081 30.1815 31.2247 30.2759 31.1369C30.3702 31.0491 30.48 30.9481 30.581 30.8493C30.682 30.7505 30.7588 30.6649 30.8488 30.5749C30.9388 30.4849 31.0442 30.3752 31.1385 30.2742C31.2329 30.1732 31.312 30.081 31.3976 29.9866C31.4832 29.8923 31.5842 29.7803 31.6742 29.6749C31.7642 29.5696 31.8366 29.4752 31.9178 29.3742C31.999 29.2732 32.0956 29.1547 32.1812 29.0515C32.2668 28.9484 32.3349 28.832 32.4139 28.7376C32.4929 28.6432 32.5785 28.5181 32.6598 28.404C32.741 28.2898 32.8046 28.1845 32.8793 28.0813C32.9539 27.9781 33.0351 27.8618 33.0988 27.7366C33.1624 27.6115 33.2349 27.5171 33.3051 27.403C33.3754 27.2888 33.45 27.1681 33.5246 27.0474C33.5993 26.9266 33.652 26.8279 33.7156 26.7005C33.7793 26.5732 33.8495 26.4613 33.9132 26.3405C33.9768 26.2198 34.0339 26.1013 34.0932 25.9827C34.1524 25.8642 34.2161 25.7369 34.2732 25.6118C34.3302 25.4866 34.3807 25.3681 34.4356 25.2452C34.4905 25.1223 34.5476 24.9949 34.6003 24.8676C34.6529 24.7403 34.6968 24.6196 34.7451 24.4944C34.7934 24.3693 34.8461 24.2354 34.8944 24.1037C34.9427 23.972 34.9778 23.8513 35.0217 23.7262C35.0656 23.601 35.1117 23.4584 35.1534 23.3244C35.1951 23.1905 35.2281 23.0676 35.2632 22.9381C35.2983 22.8086 35.3422 22.6681 35.3773 22.5298C35.4124 22.3915 35.441 22.2664 35.4717 22.1325C35.5024 21.9986 35.5376 21.8603 35.5661 21.722C35.5946 21.5837 35.6166 21.452 35.6407 21.3181C35.6649 21.1842 35.6956 21.0393 35.7176 20.8988C35.7395 20.7584 35.7549 20.6244 35.7746 20.4884C35.7944 20.3523 35.8098 20.2425 35.8229 20.1196C35.8254 20.061 35.7805 20.0112 35.722 20.0076ZM14.5829 5.64274L14.5215 5.59445V5.56591H14.5939L14.6224 5.60103L14.5829 5.64274ZM5.82439 16.3857L5.77171 16.3527L5.76074 16.3176L5.7783 16.2891H5.82L5.85073 16.3264V16.3791L5.82439 16.3857ZM13.1539 19.2196L13.11 19.2481H13.0793V19.1757L13.1254 19.1274L13.1737 19.1581L13.1539 19.2196ZM13.8124 17.9815V17.9223H13.8629L13.8937 17.8323L13.9749 17.7488L14.0034 17.7752V17.8849L13.9463 18.0364L13.8717 18.0254L13.8124 17.9815Z" fill="#9C9C9C"/>
<path d="M22.7668 29.8906L22.7295 29.8972L22.7031 29.9038L22.7668 29.8906Z" fill="#9C9C9C"/>
<path d="M43.0276 29.3456L42.1495 31.431H41.2539L44.6454 23.7305L47.9512 31.431H47.0446L46.1776 29.3456H43.0276ZM44.6168 25.6402L43.359 28.5839H45.8373L44.6168 25.6402Z" fill="#9C9C9C"/>
<path d="M59.8285 24.8418V27.0369H62.2761V27.7964H59.8285V31.4425H59.0098V24.0801H62.3442V24.8418H59.8285Z" fill="#9C9C9C"/>
<path d="M74.4946 31.4315H73.6758V24.0801H74.7382C76.1343 24.0801 77.4294 24.4511 77.4294 26.1084C77.4294 27.2389 76.7182 28.0401 75.5877 28.1367L77.9277 31.4293H76.9224L74.7009 28.2025H74.4946V31.4315ZM74.4946 27.4803H74.7492C75.6755 27.4803 76.6107 27.3047 76.6107 26.1632C76.6107 24.9537 75.7326 24.8462 74.7382 24.8462H74.4946V27.4803Z" fill="#9C9C9C"/>
<path d="M89.9653 31.4315H89.1465V24.0801H89.9653V31.4315Z" fill="#9C9C9C"/>
<path d="M107.402 25.6895C106.814 25.0733 106.001 24.7217 105.149 24.7149C103.512 24.7149 102.186 26.1395 102.186 27.7573C102.196 29.4126 103.523 30.7587 105.178 30.7932C106.018 30.771 106.817 30.4203 107.402 29.8163V30.8305C106.763 31.2942 105.996 31.5467 105.206 31.5527C103.848 31.5527 102.593 30.828 101.914 29.6517C101.235 28.4754 101.235 27.0261 101.914 25.8498C102.593 24.6734 103.848 23.9488 105.206 23.9488C105.998 23.937 106.771 24.1904 107.402 24.6688V25.6895ZM120.12 29.3466L119.242 31.432H118.344L121.738 23.7315L125.042 31.432H124.135L123.257 29.3466H120.12ZM121.709 25.6412L120.452 28.5849H122.93L121.709 25.6412ZM51.5422 15.0805H43.2469C43.2469 16.6829 44.0898 17.5478 45.7142 17.5478C46.5593 17.5478 47.1652 17.2668 47.5976 16.5315H51.3908C51.1116 17.7373 50.353 18.7773 49.2901 19.4115C48.2138 20.0413 46.9852 20.3632 45.7383 20.3422C42.0571 20.3422 39.3066 18.2634 39.3066 14.4307C39.3066 10.7276 41.8398 8.50391 45.453 8.50391C49.3076 8.50391 51.5379 10.8856 51.5379 14.6744L51.5422 15.0805ZM47.883 12.8063C47.6617 11.7589 46.7229 11.0197 45.6527 11.0502C44.5047 11.0502 43.552 11.6561 43.3127 12.8063H47.883Z" fill="#9C9C9C"/>
<path d="M63.7167 9.93795V3.64453H67.962V19.9718H63.7167V13.2811H57.5879V19.9718H53.3447V3.64453H57.5879V9.93795H63.7167Z" fill="#9C9C9C"/>
<path d="M81.7278 15.0805H73.4346C73.4346 16.6829 74.2797 17.5478 75.9019 17.5478C76.7471 17.5478 77.3529 17.2668 77.7875 16.5315H81.5763C81.296 17.7393 80.5338 18.7799 79.4668 19.4115C78.3906 20.0413 77.1619 20.3632 75.9151 20.3422C72.2339 20.3422 69.4834 18.2634 69.4834 14.4307C69.4834 10.7276 72.0166 8.50391 75.6297 8.50391C79.4844 8.50391 81.7146 10.8856 81.7146 14.6744L81.7278 15.0805ZM78.0685 12.8063C77.8472 11.7589 76.9084 11.0197 75.8383 11.0502C74.6902 11.0502 73.7375 11.6561 73.4983 12.8063H78.0685ZM96.0071 19.9734H92.0558V18.7398H92.0141C91.3205 19.8373 89.9551 20.3422 88.6556 20.3422C85.3629 20.3422 83.0471 17.5917 83.0471 14.4154C83.0471 11.239 85.3212 8.50391 88.6139 8.50391C89.8915 8.50391 91.2327 8.98025 92.0558 9.95488V8.86391H96.0071V19.9734ZM87.1278 14.4307C87.1278 15.8378 88.0585 16.92 89.661 16.92C91.2634 16.92 92.1985 15.8378 92.1985 14.4307C92.1985 13.0654 91.2634 11.9151 89.661 11.9151C88.0585 11.9151 87.1278 13.0654 87.1278 14.4307Z" fill="#9C9C9C"/>
<path d="M102.12 19.9717H98.1797V1.99805H102.12V19.9717Z" fill="#9C9C9C"/>
<path d="M117.492 1.99805V10.2715H117.536C118.445 9.05756 119.549 8.49561 121.088 8.49561C123.902 8.49561 125.259 10.3571 125.259 13.1712V19.9761H121.307V14.2776C121.307 12.978 121.112 11.6434 119.531 11.6434C117.951 11.6434 117.475 12.9868 117.475 14.2776V19.9717H113.523V1.99805H117.492Z" fill="#9C9C9C"/>
<path d="M112.037 8.86219H109.807V1.99805H105.865V8.86219H103.637V12.111H105.865V19.9717H109.807V12.111H112.037V8.86219Z" fill="#9C9C9C"/>
</g>
<defs>
<clipPath id="clip0_1557_12792">
<rect width="125.341" height="36" fill="white" transform="translate(0.00292969 0.0605469)"/>
</clipPath>
</defs>
</svg>
