<svg width="36" height="37" viewBox="0 0 36 37" fill="none" xmlns="http://www.w3.org/2000/svg">
<g clip-path="url(#clip0_1557_12755)">
<path d="M34.3662 0.277344H1.63931C0.854756 0.277344 0.21875 0.91335 0.21875 1.6979V34.4248C0.21875 35.2093 0.854756 35.8453 1.63931 35.8453H34.3662C35.1507 35.8453 35.7868 35.2093 35.7868 34.4248V1.6979C35.7868 0.91335 35.1507 0.277344 34.3662 0.277344Z" fill="#5C2682"/>
<path d="M7.09028 14.6159V15.9299H9.99692V17.1398H7.09028V19.4982H5.75V13.4062H10.3882V14.6159H7.09028Z" fill="white"/>
<path d="M16.3232 18.9665C16.1525 19.1014 15.9672 19.2167 15.7706 19.3103C15.5612 19.4087 15.3406 19.4812 15.1136 19.5263C14.85 19.5781 14.5817 19.6029 14.313 19.6004C13.8859 19.6043 13.4625 19.5214 13.0685 19.3567C12.6973 19.2021 12.3602 18.9759 12.0763 18.6911C11.795 18.4053 11.5732 18.0666 11.4236 17.6946C11.2657 17.3048 11.1858 16.8879 11.1886 16.4673V16.4501C11.1854 16.0305 11.2653 15.6145 11.4236 15.2261C11.5751 14.8539 11.7967 14.5142 12.0763 14.2256C12.3608 13.9342 12.7012 13.7033 13.0771 13.5467C13.4859 13.3782 13.9246 13.2946 14.3666 13.3011C14.6278 13.2992 14.8886 13.3224 15.1453 13.3706C15.3645 13.4126 15.5789 13.4768 15.785 13.5621C15.9723 13.6412 16.1503 13.7404 16.316 13.8581C16.4771 13.9731 16.6285 14.1012 16.7686 14.2411L15.9146 15.2243C15.6966 15.0238 15.452 14.8542 15.1878 14.7203C14.9286 14.5958 14.6441 14.5333 14.3566 14.5377C14.1123 14.5355 13.8704 14.5859 13.6474 14.6857C13.4338 14.7813 13.2426 14.9207 13.0861 15.0947C12.9277 15.2717 12.8037 15.4768 12.7207 15.6995C12.6325 15.9346 12.5882 16.1838 12.59 16.4349V16.4522C12.5885 16.7047 12.6328 16.9553 12.7207 17.192C12.8025 17.4154 12.9245 17.6218 13.0807 17.8011C13.2401 17.9814 13.4365 18.1253 13.6565 18.2229C13.8764 18.3205 14.1149 18.3695 14.3555 18.3667C14.7037 18.3667 14.9982 18.3029 15.2389 18.1752C15.4999 18.0332 15.7412 17.8577 15.9568 17.6532L16.8096 18.5147C16.6592 18.6773 16.4966 18.8284 16.3232 18.9665Z" fill="white"/>
<path d="M22.6498 19.4982V15.5209L20.9351 18.123H20.8991L19.2021 15.5472V19.4982H17.8809V13.4062H19.3252L20.9265 15.9824L22.5277 13.4062H23.9724V19.4982H22.6498Z" fill="white"/>
<path d="M30.4433 18.5582C30.3355 18.7677 30.1773 18.9471 29.9828 19.0802C29.7639 19.2278 29.5199 19.334 29.2628 19.3938C28.9562 19.4663 28.6419 19.5014 28.3268 19.4982H25.4346V13.4062H28.258C28.8832 13.4062 29.3739 13.5485 29.7301 13.8329C30.0863 14.1173 30.2644 14.5002 30.2647 14.9816V15.0007C30.2672 15.1569 30.2452 15.3125 30.1995 15.4619C30.159 15.5893 30.1008 15.7105 30.0267 15.8219C29.9562 15.9274 29.8714 16.0226 29.7747 16.1048C29.6805 16.1855 29.5777 16.2556 29.468 16.3136C29.8201 16.4473 30.0973 16.6286 30.2996 16.8576C30.5019 17.0865 30.603 17.4036 30.6027 17.8087V17.826C30.6089 18.0793 30.5542 18.3304 30.4433 18.5582ZM28.9417 15.2077C28.9417 15.0047 28.8663 14.8495 28.7156 14.7422C28.5649 14.6349 28.3473 14.5813 28.0629 14.5813H26.7399V15.869H27.9747C28.2707 15.869 28.5056 15.8183 28.6796 15.7167C28.8536 15.6152 28.9406 15.4513 28.9406 15.225L28.9417 15.2077ZM29.2812 17.6445C29.2843 17.5508 29.2645 17.4578 29.2236 17.3735C29.1826 17.2892 29.1217 17.2161 29.0461 17.1607C28.8894 17.0419 28.6374 16.9819 28.2901 16.9807H26.7421V18.321H28.3347C28.6307 18.321 28.8627 18.2673 29.031 18.1601C29.1992 18.0528 29.2832 17.886 29.283 17.6596L29.2812 17.6445Z" fill="white"/>
<path d="M30.5033 23.4023V26.3853H5.61719V24.8164C5.61714 24.6307 5.65368 24.4468 5.72473 24.2752C5.79578 24.1036 5.89994 23.9477 6.03126 23.8164C6.16258 23.6851 6.31848 23.5809 6.49007 23.5099C6.66165 23.4388 6.84555 23.4023 7.03127 23.4023H30.5033Z" fill="#FAB613"/>
<path d="M5.61719 27.3496H30.5033V30.3326H7.03127C6.84552 30.3326 6.66159 30.2961 6.48998 30.225C6.31837 30.1539 6.16245 30.0497 6.03113 29.9184C5.89981 29.787 5.79565 29.6311 5.72463 29.4594C5.6536 29.2878 5.61709 29.1039 5.61719 28.9181V27.3496Z" fill="#FAB613"/>
</g>
<defs>
<clipPath id="clip0_1557_12755">
<rect width="36" height="36" fill="white" transform="translate(0.00292969 0.0605469)"/>
</clipPath>
</defs>
</svg>
