<svg width="187" height="37" viewBox="0 0 187 37" fill="none" xmlns="http://www.w3.org/2000/svg">
<path fill-rule="evenodd" clip-rule="evenodd" d="M25.3379 4.62891L32.9347 10.1282V15.1226L14.4781 30.5131L14.4473 23.8707L25.3379 4.62891Z" stroke="#FA8366" stroke-width="2.87844"/>
<path fill-rule="evenodd" clip-rule="evenodd" d="M21.2945 4.62891L14.4463 10.1282V15.1226L32.903 30.5131L32.9338 23.8707L21.2945 4.62891Z" stroke="#FA8366" stroke-width="2.87844"/>
<path d="M49.2637 32.3116H45.5342V12.9949H49.1433V15.5651C50.3466 13.4366 52.7527 12.4327 54.9985 12.4327C57.4046 12.4327 59.7307 13.5972 60.7733 16.0872C62.2973 13.3162 64.7836 12.4326 67.2299 12.4326C70.5985 12.4326 73.8869 14.7218 73.8869 19.7819V32.3116H70.1574V20.1834C70.1574 17.6534 68.9142 15.7659 66.0669 15.7659C63.4201 15.7659 61.6154 17.8541 61.6154 20.6251V32.3116H57.8458V20.1834C57.8458 17.6936 56.6427 15.7659 53.7553 15.7659C51.0684 15.7659 49.2637 17.7739 49.2637 20.6654V32.3116ZM88.1636 29.5406C91.3718 29.5406 94.1792 27.131 94.1792 22.6332C94.1792 18.1755 91.3718 15.7659 88.1636 15.7659C84.9553 15.7659 82.1482 18.1755 82.1482 22.6332C82.1482 27.131 84.9554 29.5406 88.1636 29.5406ZM88.1636 12.3925C93.9384 12.3925 98.029 16.7699 98.029 22.6332C98.029 28.5366 93.9384 32.914 88.1637 32.914C82.3888 32.914 78.2983 28.5366 78.2983 22.6332C78.2983 16.7699 82.3888 12.3925 88.1636 12.3925ZM106.571 32.3116H102.841V3.23613H106.571V15.7257C107.493 13.9989 109.739 12.4326 112.947 12.4326C118.802 12.4326 121.81 16.9305 121.81 22.5529C121.81 28.2956 118.562 32.8337 112.827 32.8337C109.98 32.8337 107.774 31.5888 106.571 29.5004V32.3116H106.571ZM117.96 22.5529C117.96 18.3763 115.755 15.7659 112.266 15.7659C108.937 15.7659 106.531 18.3763 106.531 22.5529C106.531 26.7295 108.937 29.4603 112.266 29.4603C115.714 29.4603 117.96 26.7295 117.96 22.5529ZM130.392 21.1473V32.3116H126.622V12.9949H130.312V15.7659C131.716 13.3563 134.001 12.4326 136.247 12.4326C140.859 12.4326 143.145 15.7659 143.145 20.0629V32.3116H139.375V20.7055C139.375 18.0148 138.252 15.8462 134.884 15.8462C131.916 15.8462 130.392 18.2156 130.392 21.1473ZM152.89 32.3116H149.16V12.9949H152.89V32.3116ZM148.318 5.68588C148.318 4.1598 149.521 2.95508 151.005 2.95508C152.529 2.95508 153.732 4.15991 153.732 5.68588C153.732 7.17177 152.529 8.3766 151.005 8.3766C149.521 8.3766 148.318 7.17188 148.318 5.68588ZM158.103 27.131C158.103 23.6773 160.63 21.7497 163.958 21.2678L169.172 20.5048C170.335 20.3441 170.656 19.7417 170.656 19.059C170.656 17.1714 169.412 15.6053 166.485 15.6053C163.838 15.6053 162.354 17.2518 162.114 19.5007L158.504 18.6574C158.905 14.9628 162.234 12.3925 166.405 12.3925C172.179 12.3925 174.425 15.6855 174.425 19.4606V29.139C174.425 30.8257 174.586 31.8296 174.666 32.3116H170.976C170.896 31.8296 170.776 31.1067 170.776 29.7012C169.934 31.0666 168.009 32.914 164.56 32.914C160.63 32.914 158.103 30.1832 158.103 27.131ZM165.081 29.7414C168.169 29.7414 170.655 28.2554 170.655 24.0388V23.1553L164.76 24.0388C163.156 24.2797 161.953 25.2034 161.953 26.9302C161.953 28.3759 163.156 29.7414 165.081 29.7414H165.081Z" fill="black"/>
</svg>
