<svg width="36" height="37" viewBox="0 0 36 37" fill="none" xmlns="http://www.w3.org/2000/svg">
<g clip-path="url(#clip0_1557_12763)">
<path d="M24.2823 22.9863C23.7628 27.6544 22.9272 32.6826 22.2605 34.588C22.2605 34.588 20.4328 35.802 17.952 35.7476C15.0587 35.7948 13.416 34.4682 13.416 34.4682C13.54 34.5242 13.6696 34.5669 13.8027 34.5956C14.4121 34.9664 15.8331 35.6573 17.9142 35.6234C20.3464 35.6767 22.1385 34.4865 22.1385 34.4865C22.7731 32.6739 23.5637 27.9795 24.0745 23.5213C24.1441 23.3456 24.2134 23.1673 24.2823 22.9863Z" fill="#CDA453"/>
<path d="M24.0746 23.5215C23.5638 27.9797 22.7732 32.6759 22.1385 34.4867C22.1385 34.4867 20.3465 35.6769 17.9143 35.6236C15.8331 35.6574 14.4122 34.9666 13.8027 34.5958C15.1149 34.9054 19.571 34.9554 24.0746 23.5215Z" fill="url(#paint0_linear_1557_12763)"/>
<path d="M17.7901 2.32039C17.7901 2.32039 17.7052 2.38483 17.5525 2.52091C15.4634 2.58679 11.1841 3.08431 11.1841 3.08431C10.8767 7.34239 10.8886 12.7283 10.908 14.8563C10.8413 15.0963 10.776 15.34 10.7122 15.5875C10.7122 15.5875 10.5847 8.32195 10.9768 2.89171C10.9768 2.89207 15.9484 2.31283 17.7901 2.32039Z" fill="#CDA453"/>
<path d="M17.5524 2.52148C16.6149 3.35596 13.1179 6.88972 10.9078 14.8569C10.8884 12.7296 10.8765 7.34368 11.184 3.08488C11.184 3.08488 15.4633 2.58736 17.5524 2.52148Z" fill="url(#paint1_linear_1557_12763)"/>
<path d="M25.3974 19.4114C27.7054 9.94337 26.2655 1.46089 22.1812 0.465246C18.0969 -0.530398 12.9149 6.33782 10.6068 15.8058C8.29878 25.2739 9.73871 33.7563 13.823 34.752C17.9073 35.7476 23.0893 28.8794 25.3974 19.4114Z" fill="white"/>
<path d="M14.1416 8.95253C14.1416 8.95253 17.162 4.26893 20.0128 4.26893C22.8637 4.26893 23.6877 7.91501 23.6877 11.4329C23.8274 15.0815 22.3557 20.7238 20.4434 25.2119C20.4434 25.2119 25.2163 17.8233 25.2163 9.06557C25.2163 5.52821 24.051 1.64453 21.495 1.64453C17.8251 1.64453 14.1416 8.95253 14.1416 8.95253Z" fill="url(#paint2_linear_1557_12763)"/>
<path d="M10.7209 22.133C10.7209 24.716 11.4157 30.5653 14.8195 30.5653C21.3071 30.5653 25.2167 15.5893 25.7866 10.5918C26.1563 16.4238 21.1847 33.7434 14.3386 33.7434C9.55491 33.7434 10.7209 22.133 10.7209 22.133Z" fill="url(#paint3_linear_1557_12763)"/>
<path d="M21.4806 16.3319C21.4806 16.3319 22.1722 15.7249 22.2428 15.1039C22.4145 13.5919 20.5065 11.5039 17.6416 11.5039V21.8784C17.6416 21.8784 22.1722 21.6959 22.5254 17.9407C22.6276 16.8528 21.4806 16.3319 21.4806 16.3319ZM19.2645 13.6016C20.262 13.6016 20.865 14.3087 20.865 14.8595C20.8781 15.0371 20.8339 15.2142 20.7389 15.3648C20.6439 15.5155 20.5032 15.6317 20.3373 15.6965H19.2645V13.6016ZM21.0076 18.9005C20.4644 19.7051 19.2645 19.8177 19.2645 19.8177V17.3337C20.9302 17.1645 21.045 17.4857 21.1365 17.7078C21.2452 17.9641 21.2358 18.5336 21.0076 18.9005Z" fill="url(#paint4_radial_1557_12763)"/>
<path d="M16.9737 11.5059V21.8796C16.4387 21.8803 15.905 21.8262 15.3811 21.718L12.999 15.3028V20.7589C12.5285 20.4595 12.103 20.0946 11.7354 19.6753L11.7624 13.6799C12.2237 13.1638 12.7705 12.731 13.3788 12.4005L15.4668 17.3454V11.6509C15.9632 11.554 16.4679 11.5054 16.9737 11.5059Z" fill="url(#paint5_radial_1557_12763)"/>
</g>
<defs>
<linearGradient id="paint0_linear_1557_12763" x1="13.8027" y1="29.5734" x2="24.0746" y2="29.5734" gradientUnits="userSpaceOnUse">
<stop stop-color="#020F58"/>
<stop offset="0.18" stop-color="#02125C"/>
<stop offset="0.34" stop-color="#031B67"/>
<stop offset="0.51" stop-color="#042B7B"/>
<stop offset="0.67" stop-color="#064196"/>
<stop offset="0.84" stop-color="#095DB9"/>
<stop offset="1" stop-color="#0C80E4"/>
</linearGradient>
<linearGradient id="paint1_linear_1557_12763" x1="16.6423" y1="2.25616" x2="9.91424" y2="10.3299" gradientUnits="userSpaceOnUse">
<stop stop-color="#0C80E4"/>
<stop offset="0.24" stop-color="#0858B2"/>
<stop offset="0.47" stop-color="#06388B"/>
<stop offset="0.68" stop-color="#04226F"/>
<stop offset="0.86" stop-color="#02145E"/>
<stop offset="1" stop-color="#020F58"/>
</linearGradient>
<linearGradient id="paint2_linear_1557_12763" x1="29.5032" y1="4.71533" x2="13.8777" y2="19.3583" gradientUnits="userSpaceOnUse">
<stop stop-color="#020F58"/>
<stop offset="0.1" stop-color="#02125B"/>
<stop offset="0.19" stop-color="#031A65"/>
<stop offset="0.26" stop-color="#042776"/>
<stop offset="0.34" stop-color="#063B8E"/>
<stop offset="0.41" stop-color="#0854AD"/>
<stop offset="0.47" stop-color="#0B72D2"/>
<stop offset="0.5" stop-color="#0C80E4"/>
<stop offset="0.57" stop-color="#0C7CDF"/>
<stop offset="0.67" stop-color="#0B6FD0"/>
<stop offset="0.77" stop-color="#095BB6"/>
<stop offset="0.87" stop-color="#073F94"/>
<stop offset="0.98" stop-color="#031B67"/>
<stop offset="1" stop-color="#031560"/>
</linearGradient>
<linearGradient id="paint3_linear_1557_12763" x1="10.5957" y1="22.1676" x2="25.806" y2="22.1676" gradientUnits="userSpaceOnUse">
<stop offset="0.1" stop-color="#D2AE66"/>
<stop offset="0.17" stop-color="#CDA453"/>
<stop offset="0.36" stop-color="#F2E8D3"/>
<stop offset="0.39" stop-color="#F8F2E6"/>
<stop offset="0.48" stop-color="#F0E3CA"/>
<stop offset="0.65" stop-color="#E1C897"/>
<stop offset="0.8" stop-color="#D6B472"/>
<stop offset="0.92" stop-color="#CFA85B"/>
<stop offset="1" stop-color="#CDA453"/>
</linearGradient>
<radialGradient id="paint4_radial_1557_12763" cx="0" cy="0" r="1" gradientUnits="userSpaceOnUse" gradientTransform="translate(16.7664 16.4024) scale(5.34132)">
<stop stop-color="#0C80E4"/>
<stop offset="1" stop-color="#020F58"/>
</radialGradient>
<radialGradient id="paint5_radial_1557_12763" cx="0" cy="0" r="1" gradientUnits="userSpaceOnUse" gradientTransform="translate(16.7667 16.4037) scale(5.34132)">
<stop stop-color="#0C80E4"/>
<stop offset="1" stop-color="#020F58"/>
</radialGradient>
<clipPath id="clip0_1557_12763">
<rect width="36" height="36" fill="white" transform="translate(0.00292969 0.0605469)"/>
</clipPath>
</defs>
</svg>
