<svg width="44" height="37" viewBox="0 0 44 37" fill="none" xmlns="http://www.w3.org/2000/svg">
<g clip-path="url(#clip0_1557_12825)">
<mask id="mask0_1557_12825" style="mask-type:luminance" maskUnits="userSpaceOnUse" x="0" y="0" width="44" height="37">
<path d="M0.34375 0.0664062H43.8708V36.0664H0.34375V0.0664062Z" fill="white"/>
</mask>
<g mask="url(#mask0_1557_12825)">
<path d="M35.3853 3.41989C25.4338 3.50446 15.2568 -3.00768 5.58729 1.89757C3.16286 3.10979 0.34375 5.81613 0.34375 8.748V36.0652C8.23725 30.1732 16.61 28.9046 24.87 28.82C28.4784 28.7919 32.0869 28.5945 35.5826 27.5796C38.4017 26.7621 41.5591 25.3807 43.8708 23.6047V1.22098C40.5442 3.56084 39.473 3.3917 35.3853 3.41989Z" fill="white"/>
<path d="M43.1663 2.37627C40.6573 3.92678 39.2759 3.95497 36.2313 3.95497H35.4137C31.6643 4.01136 27.8867 3.10924 24.2219 2.26351C17.8225 0.769383 11.7896 -0.611979 5.89769 2.34808C3.50145 3.5603 1.04883 6.0975 1.04883 8.57831V34.6832L2.03552 34.0349V9.565C2.03552 7.05599 4.45995 4.5188 6.85619 3.33477C12.7763 0.346517 18.8092 1.75607 25.1804 3.22201C28.8452 4.06774 31.8899 5.22357 35.6111 5.19538C35.6111 5.19538 41.503 5.39272 43.1663 2.37627Z" fill="#BBE2F1"/>
<path d="M36.0903 26.1712C32.9611 27.0451 29.9447 27.6089 24.1937 27.1015C16.6667 26.4531 5.30568 26.6786 1.04883 34.6849C9.36519 29.4131 18.0199 28.3701 24.8139 28.3137C28.0277 28.2855 31.8053 28.1163 35.4137 27.1015C37.4153 26.5376 42.1232 24.9307 43.1099 23.2957C41.4466 24.085 38.2329 25.5509 36.0903 26.1712ZM39.1913 9.70756C38.3738 9.70756 38.0919 9.17193 38.0919 8.57992C38.0919 8.0161 38.3738 7.48047 39.1913 7.48047C40.0089 7.48047 40.2626 8.0161 40.2626 8.60811C40.2626 9.17193 40.0089 9.70756 39.1913 9.70756ZM39.1913 7.67781C38.5148 7.67781 38.2892 8.07248 38.2892 8.60811C38.2892 9.11555 38.5148 9.53842 39.1913 9.53842C39.8679 9.53842 40.0653 9.11555 40.0653 8.60811C40.0653 8.07248 39.8679 7.67781 39.1913 7.67781ZM39.4169 9.25651L39.1632 8.77726H39.0222V9.25651H38.6839V7.95972H39.2477C39.6424 7.95972 39.727 8.18525 39.727 8.38258C39.727 8.57992 39.6142 8.69268 39.4451 8.74907L39.7552 9.25651H39.4169ZM39.2195 8.24163H39.0222V8.55173H39.2195C39.3887 8.55173 39.3887 8.46716 39.3887 8.38258C39.3887 8.29801 39.3605 8.24163 39.2195 8.24163ZM32.8484 17.7702C32.9893 17.6856 33.1585 17.6574 33.3276 17.6293L33.7787 17.5165C34.3143 16.9245 34.9909 16.4452 35.5265 16.3607H35.5547C35.6111 16.2479 35.6111 16.1633 35.6111 16.1069L35.5829 15.966C35.4419 15.8532 35.2728 15.825 35.0191 15.8532C34.2579 15.9942 33.243 16.9245 32.7074 17.742V17.9112L32.8484 17.7702Z" fill="#AE9A63"/>
<path d="M38.4861 21.6585C38.0632 21.8558 37.5276 21.6867 37.2175 21.3484C36.8228 20.8973 36.4845 20.3899 36.2308 19.8543C36.0617 19.5442 35.9207 19.2059 35.6952 18.924C35.4697 18.6702 35.075 18.2474 34.7085 18.3038C37.6686 17.8527 38.5143 14.6107 36.0335 14.3852C34.3702 14.2161 32.9888 15.5692 32.3686 16.7251V12.1017C32.3686 11.1432 32.2559 8.77518 33.3835 8.3805C34.6239 7.98583 33.9473 9.59272 35.3005 9.67729C35.8643 9.70548 36.3718 9.28261 36.4845 8.80337C36.6255 8.21135 36.1462 7.61934 35.6388 7.33743C34.1729 6.60446 29.8314 8.32412 29.8314 13.9623V20.2208C29.6341 20.4463 29.4368 20.6154 29.2112 20.7846C28.0554 21.5457 27.9144 20.3053 27.9144 20.3053V15.8229C27.9144 15.8229 27.8581 14.8081 28.2809 14.6389H26.6459C25.8847 14.6389 25.9411 15.1745 25.9411 15.1745V15.4847C25.6874 15.0054 25.1235 14.6953 24.4469 14.6671C22.4172 14.5825 21.1768 16.5277 21.0922 18.3038C21.064 18.8112 21.1204 19.3468 21.2332 19.8543C21.1204 19.9952 21.0358 20.1362 20.8949 20.2489C19.9082 21.2074 18.4704 21.7149 17.1455 21.4048L16.7508 21.292C15.6513 20.8973 15.1439 19.7415 15.1721 18.5857C15.2003 17.4862 15.7923 16.0767 16.8635 15.682C17.0891 15.6256 17.3146 15.5692 17.5401 15.5974C17.6529 15.6256 17.7939 15.6538 17.8784 15.7384C17.9912 15.7948 18.0758 15.9639 18.1321 16.0767C18.3859 16.8378 17.8784 18.6702 15.3412 19.0649C15.3412 19.0649 16.046 19.8261 17.6811 19.4032C18.3013 19.2341 18.8651 19.0085 19.3444 18.5293C19.6263 18.2192 19.8236 17.8809 19.9646 17.458C20.0773 17.0634 20.0773 16.5841 19.9646 16.1612C19.8236 15.6538 19.4571 15.2027 19.0343 14.949C18.6396 14.7235 18.2167 14.6107 17.7657 14.5262C15.9051 14.2442 13.2551 15.5128 13.0859 18.4165C12.945 21.1229 14.721 22.7579 17.4838 22.7579C19.4007 22.7579 20.6693 21.6021 21.4587 20.6154C21.797 21.5457 22.4454 22.3069 23.4039 22.5324C25.2927 23.0117 25.9693 20.9255 25.9693 20.9255C25.9693 20.9255 25.9411 21.8558 26.4203 22.3069C26.815 22.6734 27.3506 22.6452 27.8299 22.5042C28.5628 22.2505 29.2394 21.7149 29.8314 21.0947V21.6585C29.8314 21.6585 29.8596 22.1659 29.4368 22.5606H31.7766C31.7766 22.5606 32.3686 22.5324 32.3686 21.7995V17.6554C33.0734 16.5559 34.7649 15.0618 35.667 15.7666C35.667 15.7666 36.0335 16.1049 35.526 16.7532C35.3287 16.9506 35.1032 17.1479 34.8776 17.2889C34.5394 17.4862 34.2011 17.6272 33.8346 17.7681L33.3271 17.8809C33.158 17.9091 33.017 17.9373 32.9043 18.0218C32.8197 18.0782 32.7351 18.1346 32.7069 18.2192C32.6224 18.3319 32.5942 18.4729 32.566 18.6139C32.566 18.6139 32.7915 18.5011 33.1016 18.5575C33.5245 18.6421 33.75 18.924 33.9191 19.2904L34.4548 20.4463L34.8776 21.2356C35.2441 21.9122 35.8079 22.5042 36.5973 22.617C37.2175 22.7016 37.8377 22.617 38.2888 22.1377C38.4015 21.9968 38.4861 21.8276 38.4861 21.6585ZM25.9411 18.5575C25.9411 21.3484 24.5033 21.0947 24.5033 21.0947C23.714 21.0947 22.8964 19.8543 22.8964 18.4447C22.8964 17.007 23.6012 15.9075 24.5033 15.8511C25.1517 15.7948 25.8847 16.3304 25.9411 17.2889V18.5575Z" fill="#20307F"/>
<path d="M19.8525 7.92986C19.4015 6.18201 17.7382 4.85703 16.1031 4.20864C14.5958 3.62608 12.9572 3.47001 11.367 3.75758C9.08453 4.16818 6.99161 5.29361 5.39051 6.97136C5.02403 7.36604 4.68574 7.90167 4.43202 8.40911C3.72724 9.87504 4.00915 11.8484 5.55966 12.6378C5.84157 12.7787 6.20805 12.8351 6.51816 12.8351C7.78675 12.8915 9.19631 11.792 8.63249 10.4107C7.9559 11.4537 7.02559 11.0027 7.02559 11.0027C6.32082 10.6644 6.17986 9.84685 6.3772 9.17027C6.57454 8.38092 7.08198 7.67614 7.6458 7.11232C8.9144 5.9001 10.6059 5.22352 12.3255 5.02618C14.0734 4.82884 16.0749 5.44904 17.0616 7.02774C17.851 8.32453 17.6254 9.95962 16.6951 11.1155C15.7366 12.2713 13.6787 12.4122 12.7766 11.0591C12.4686 10.6252 12.3284 10.0943 12.3819 9.56494C12.4947 8.7474 13.0303 7.98624 13.9042 7.90167C13.8196 7.67614 13.6223 7.19689 12.5792 7.36604C12.5792 7.36604 9.36545 7.87348 9.36545 12.4968V18.3042C9.36545 19.2627 9.47822 21.5743 8.32238 21.969C7.11017 22.3919 7.78675 20.7286 6.40539 20.6722C5.84157 20.644 5.36232 21.0387 5.24956 21.5461C5.1086 22.1664 5.55966 22.7302 6.09529 23.0121C7.53303 23.7451 12.0436 22.3355 12.0436 18.6988V12.3559C13.2558 13.5117 14.9473 13.7936 16.526 13.3425C16.9489 13.2298 17.3435 13.0043 17.71 12.8069C18.894 12.1021 19.7116 10.8899 19.9371 9.56494C20.0217 9.02931 19.9653 8.4373 19.8525 7.92986Z" fill="#20307F"/>
<path d="M36.9079 8.86196C36.8545 9.09556 36.7476 9.3136 36.5958 9.49896C36.4439 9.68433 36.2512 9.83198 36.0326 9.93031C35.8141 10.0286 35.5758 10.075 35.3363 10.0657C35.0969 10.0564 34.8628 9.99179 34.6526 9.87684C34.8217 10.1869 35.16 10.497 35.8084 10.5534C36.5414 10.5816 37.218 10.0742 37.3871 9.3694C37.5563 8.63643 37.1334 8.01622 36.5978 7.62155C36.8515 7.98803 36.9924 8.4109 36.9079 8.86196ZM24.3065 20.6176C24.0246 20.1948 23.799 19.6028 23.799 18.9262C23.799 17.6294 24.4474 16.7836 25.0394 16.7273C25.1804 16.6991 25.3213 16.7555 25.4623 16.8118C25.3777 16.6709 25.2931 16.5299 25.1804 16.4454C25.0112 16.2762 24.7575 16.1916 24.5602 16.2198C23.94 16.248 23.3198 17.1219 23.3198 18.4187C23.3198 19.49 23.8272 20.3639 24.3065 20.6176ZM28.8734 15.4869V20.5049C28.7043 20.5894 28.5915 20.6176 28.5351 20.5894C28.4506 20.5331 28.366 20.3357 28.366 20.1948V15.4305C28.366 15.4305 28.366 14.7257 28.7325 14.6411H29.2681C29.2681 14.6411 28.8734 14.8385 28.8734 15.4869ZM33.2994 14.9512V12.555V11.9912C33.2994 11.0609 33.3558 9.48216 34.0606 9.22844H34.0888L33.976 8.97472C33.835 8.63643 33.835 8.63643 33.5531 8.74919C32.8484 8.97472 32.792 10.5534 32.792 11.4837V15.4587L33.2994 14.9512ZM37.9227 15.656V15.7124C37.9227 16.7273 37.1052 17.7985 35.7802 18.3623L36.0339 18.6443L36.626 19.6309C36.8797 20.1948 37.1898 20.6458 37.5563 21.0405L37.7818 21.2096C37.5563 20.8995 37.3025 20.5613 37.1052 20.1384L36.5414 19.1517L36.2595 18.8698C37.6126 18.306 38.4302 17.2065 38.4302 16.2198V16.1634C38.402 15.656 38.1765 15.1486 37.669 14.8103C37.8382 15.064 37.9227 15.3741 37.9227 15.656ZM30.0011 23.4367H32.3127C32.7356 23.4086 33.2994 23.0703 33.2994 22.2527V19.4054H33.5813C33.4122 19.0671 33.2712 18.9262 33.0739 18.898L32.792 18.9262V21.7453C32.792 22.591 32.2282 22.9011 31.8335 22.9293H29.4372C29.4372 22.9293 29.8037 23.4086 30.0011 23.4367ZM20.7262 18.3623C20.5852 18.7006 20.3879 19.0107 20.1624 19.2645C19.5986 19.8565 18.8938 20.082 18.33 20.2512C17.3996 20.4767 16.7513 20.3639 16.3002 20.1948L16.5821 20.7022C16.2156 20.4767 15.9619 20.1102 15.7928 19.6873C16.2438 19.8565 16.8922 19.9692 17.8225 19.7437C18.4145 19.5746 19.0911 19.349 19.6549 18.7852C19.9932 18.4469 20.2188 18.0522 20.3879 17.5448C20.5289 17.0656 20.5289 16.5299 20.3879 16.0225C20.3315 15.7406 20.1906 15.4869 20.0214 15.2331C20.2946 15.4411 20.5211 15.7042 20.6862 16.0053C20.8514 16.3064 20.9514 16.6388 20.9799 16.981C20.9799 16.9528 21.0363 17.6858 20.7262 18.3623ZM26.1671 22.5628C26.0261 22.3937 25.9134 22.1963 25.8288 21.999C25.3213 22.6474 24.5038 23.183 23.348 22.9011C22.9533 22.7883 22.5868 22.591 22.2767 22.3373C22.6996 22.8729 23.2352 23.2394 23.8554 23.3804C24.9267 23.6623 25.716 23.183 26.2235 22.591L26.1671 22.5628ZM39.2477 21.8017C39.135 21.7171 39.0222 21.7171 38.9094 21.7453C38.8531 22.0272 38.7121 22.2527 38.6275 22.3373C38.1483 22.8729 37.4435 23.0703 36.5696 22.9575C36.1467 22.9011 35.7802 22.732 35.4419 22.4782C35.893 23.0421 36.4568 23.3804 37.077 23.4649C37.9509 23.5777 38.6557 23.3804 39.1068 22.8447C39.2477 22.732 39.4169 22.4501 39.4169 22.14C39.4169 21.999 39.3605 21.858 39.2477 21.8017ZM29.1271 22.6756L29.0989 22.5346C29.0989 22.4219 29.1553 22.3091 29.2117 22.2527L29.3245 22.0554C28.8734 22.3937 28.4506 22.6756 27.9995 22.8447C27.4075 23.0421 26.8718 22.9857 26.449 22.732L26.6745 23.0421C27.1256 23.4649 27.774 23.5777 28.5069 23.324C28.7888 23.2394 29.0708 23.0703 29.3527 22.9011C29.2681 22.8447 29.1553 22.7883 29.1271 22.6756ZM21.3746 21.266C20.2751 22.4782 18.9783 23.1266 17.5124 23.1266C16.1592 23.1266 15.0316 22.7602 14.2141 22.0554L14.355 22.2245C15.2007 23.1266 16.4693 23.6059 18.0199 23.6059C19.4294 23.6059 20.698 22.9857 21.7693 21.858L21.3746 21.266ZM17.5406 16.5299C16.864 16.7836 16.413 17.5448 16.2156 18.3623L15.6236 18.5315C15.6518 17.5448 16.1874 16.3326 17.0332 16.0225C17.2023 15.9661 17.3715 15.9379 17.5124 15.9661L17.6534 15.9943C17.6534 15.9943 18.1608 16.3326 17.5406 16.5299ZM12.4098 5.39446C10.6338 5.61998 9.05509 6.32476 7.95564 7.39602C7.53277 7.7907 6.99714 8.46728 6.77161 9.25663C6.65885 9.73588 6.71523 10.3843 7.22267 10.6098L7.30724 10.6662C7.22267 10.3843 7.19448 10.046 7.27905 9.73588C7.50458 8.94653 8.04021 8.29814 8.46308 7.87527C9.56253 6.80401 11.1412 6.09923 12.9173 5.90189C14.0731 5.78913 15.4545 6.04285 16.4693 6.8322C15.4827 5.64817 13.763 5.2535 12.4098 5.39446ZM8.85775 12.9215C8.64089 13.1937 8.36017 13.4082 8.04051 13.5459C7.72085 13.6836 7.37214 13.7402 7.02533 13.7108C6.828 13.7108 6.34875 13.6826 5.92588 13.4853C5.47483 13.2598 5.13653 12.9779 4.88281 12.6114L5.41844 12.9779C5.84131 13.1752 6.34875 13.2316 6.51789 13.2316C7.27905 13.2598 8.18117 12.9497 8.63223 12.3013C8.94233 11.8784 9.13966 11.2018 8.88594 10.5534C8.88594 10.5534 9.75987 11.7093 8.85775 12.9215ZM8.18117 21.5479C8.0684 21.3224 7.89926 21.0687 7.61735 20.9277L7.81468 21.2942C7.95564 21.6325 7.95564 21.6325 8.18117 21.5479Z" fill="#AE9A63"/>
<path d="M20.754 8.29781C20.5002 7.28293 19.88 6.40901 19.1189 5.73242C19.6263 6.32443 20.0492 7.00102 20.2465 7.79037C20.4976 8.80907 20.4074 9.88201 19.9898 10.8445C19.5722 11.807 18.8503 12.6059 17.9349 13.1185C17.6248 13.2876 17.1737 13.5413 16.6663 13.6823C15.1721 14.1052 13.6498 13.9078 12.4658 13.1467V18.6721C12.4658 20.3072 11.6201 21.745 10.0696 22.6753C8.63181 23.5492 6.85577 23.8311 5.89727 23.3237L5.64355 23.1545C5.84089 23.4364 6.1228 23.6901 6.40471 23.8311C7.36321 24.3385 9.13925 24.0566 10.5488 23.1827C12.0993 22.2524 12.9732 20.8146 12.9732 19.1796V13.6541C13.7959 14.1625 14.7448 14.4294 15.7118 14.4244C16.6788 14.4194 17.625 14.1427 18.4423 13.6259C19.7391 12.8366 20.613 11.568 20.8385 10.102C20.9231 9.53822 20.8949 8.88982 20.754 8.29781ZM13.6216 11.2861C13.3679 10.8914 13.2551 10.4685 13.3115 10.102C13.3679 9.48183 13.7626 8.83344 14.4674 8.74887C14.5801 8.74887 14.6929 8.69248 14.7493 8.57972C14.8057 8.46696 14.8338 8.326 14.7775 8.21324C14.6647 7.90313 14.4674 7.67761 14.1854 7.56484L14.2982 7.73399C14.3546 7.84675 14.3264 7.95952 14.27 8.07228C14.2136 8.18505 14.0727 8.24143 13.9599 8.26962C13.2551 8.326 12.8887 8.9744 12.8041 9.5946C12.7809 9.92336 12.8442 10.2525 12.9876 10.5492C13.1311 10.8459 13.3496 11.1 13.6216 11.2861Z" fill="#AE9A63"/>
<path d="M23.7985 21.0406C23.1783 20.5614 22.699 19.5465 22.699 18.4471C22.699 16.9247 23.4602 15.7407 24.5033 15.6561C24.7288 15.6279 25.0107 15.6843 25.2362 15.7971C24.9543 15.5998 24.616 15.487 24.2777 15.5152C23.2629 15.5998 22.4735 16.7838 22.4735 18.3061C22.4735 19.5465 23.0655 20.646 23.7985 21.0406ZM27.5197 20.1667V15.6843V15.5434C27.5197 15.3742 27.5479 15.0923 27.6325 14.8386H27.9144C27.7734 15.1487 27.7452 15.487 27.7452 15.6843V20.3077C27.7452 20.3077 27.8016 20.8997 28.1681 21.0688C28.1681 21.0688 27.5197 21.1534 27.5197 20.1667ZM17.9066 15.5434C17.5401 15.346 17.089 15.4024 16.8353 15.5152C15.6795 15.9099 15.0311 17.404 15.0029 18.588C14.9747 19.5183 15.2848 20.6178 16.1587 21.1816C15.1156 20.646 14.7773 19.4619 14.7773 18.4752C14.8337 17.263 15.4821 15.7971 16.6098 15.3742C16.8917 15.2897 17.1454 15.2333 17.3709 15.2897C17.3709 15.2615 17.6528 15.3178 17.9066 15.5434ZM36.0898 8.63656C35.977 9.00305 35.6105 9.39772 35.1031 9.36953L34.8212 9.31315C34.934 9.39772 35.0749 9.48229 35.3286 9.48229C35.8079 9.51048 36.2026 9.144 36.2871 8.77752C36.3999 8.27008 36.0052 7.76264 35.5542 7.53711C35.8925 7.79083 36.1744 8.2137 36.0898 8.63656ZM34.6802 18.1088C36.3435 17.855 37.3302 16.671 37.302 15.7125C37.302 15.2615 37.0765 14.9514 36.6818 14.754C36.9355 14.9514 37.0765 15.2333 37.1047 15.5716C37.1047 16.5301 36.118 17.7423 34.4547 17.9678C34.4547 17.9678 34.2574 18.1088 34.6802 18.1088ZM31.9739 16.9529V11.7094C31.9739 10.5817 31.9457 8.46741 33.1297 8.07274C33.5526 7.93178 33.8063 8.01636 33.9755 8.1855C33.8345 8.12912 33.6372 8.12912 33.3553 8.2137C32.143 8.60837 32.1712 10.7227 32.1994 11.8503V16.671L31.9739 16.9529ZM37.2738 21.6608L37.1047 21.4917C36.71 21.0688 36.3435 20.5332 36.0616 19.9412L35.5542 19.0673C35.385 18.8699 35.1595 18.6444 34.934 18.5316L35.3286 18.9263L35.8361 19.8284C36.118 20.4204 36.4845 20.9279 36.851 21.3507C36.9919 21.4917 37.1329 21.5763 37.2738 21.6608ZM25.5745 15.4306C25.6027 15.5152 25.6873 15.5434 25.7719 15.5434C25.6309 15.3178 25.4336 15.1487 25.1799 15.0359C25.349 15.1487 25.49 15.2897 25.5745 15.4306ZM32.3686 16.9247L32.0021 17.404L31.9739 17.4886V21.6326C31.9739 22.1683 31.6356 22.2247 31.5792 22.2247H29.8878L29.8314 22.3656H31.8048C31.8611 22.3656 32.1994 22.3092 32.1994 21.7736V17.6295L32.2276 17.5167C32.7351 16.7556 33.8909 15.5716 34.9058 15.4024C35.1595 15.346 35.4132 15.3742 35.6105 15.4588C35.3568 15.2615 35.0467 15.2051 34.6802 15.2615C34.06 15.3742 33.3835 15.8535 32.8478 16.3891L32.3686 16.9247Z" fill="#0069B4"/>
<path d="M19.5987 16.0785C19.7114 16.5013 19.6832 16.9242 19.5705 17.2625C19.4577 17.6572 19.2604 17.9955 19.0067 18.2492C18.5274 18.7284 17.9354 18.9258 17.428 19.0667C16.7796 19.2359 16.2721 19.2077 15.9338 19.1231L15.8493 19.1513C16.1875 19.2922 16.7514 19.4332 17.6535 19.2077C18.1609 19.0667 18.7529 18.8694 19.204 18.3901C19.4859 18.1364 19.6551 17.7981 19.796 17.4034C19.9088 17.0651 19.9088 16.6141 19.796 16.2194C19.6832 15.7965 19.3449 15.3737 18.9785 15.1482L18.8657 15.0918C19.204 15.3455 19.4859 15.712 19.5987 16.0785ZM36.4005 22.2805L35.9777 22.1395C36.175 22.2805 36.4005 22.3651 36.6261 22.3933C37.3309 22.506 37.8101 22.3651 38.1484 21.9986L38.1766 21.9422L37.8665 21.914C37.5282 22.2241 37.0489 22.3651 36.4005 22.2805ZM21.4593 20.3917C21.4311 20.3353 21.3465 20.2789 21.2901 20.2789L21.0928 20.3353L21.0646 20.3917C19.9933 21.7449 18.7247 22.4215 17.287 22.4215C16.3285 22.4215 15.4828 22.2241 14.8344 21.8294C15.5392 22.3087 16.4413 22.5624 17.5125 22.5624C18.9503 22.5624 20.2471 21.8576 21.3183 20.4763L21.4593 20.4199V20.3917ZM29.8038 20.8991C29.8038 20.8428 29.7475 20.7864 29.7193 20.7864C29.6347 20.7582 29.5501 20.7582 29.4937 20.8428C28.8735 21.4911 28.2251 21.9422 27.5767 22.1677C27.3512 22.2523 26.9847 22.3369 26.6464 22.1959C27.0129 22.506 27.5204 22.3933 27.8023 22.3087C28.4507 22.0832 29.0709 21.6321 29.7193 20.9555L29.8038 20.8991ZM25.9417 20.73C25.8853 20.7582 25.8289 20.7864 25.8007 20.8709C25.7443 21.0401 25.0959 22.7316 23.4608 22.3369C23.1789 22.2805 22.9534 22.1677 22.7279 21.9986C22.897 22.0832 23.0662 22.1677 23.2635 22.1959C24.6731 22.5624 25.3496 21.2938 25.5188 20.8428C25.547 20.8428 25.7161 20.4763 25.9417 20.73ZM12.0998 4.71746C10.1828 4.94298 8.49138 5.70414 7.30736 6.85998C6.63077 7.53656 6.17972 8.26953 5.95419 9.0025C5.75685 9.73547 5.926 10.694 6.71535 11.0886V11.0604H6.68716C6.12333 10.6094 6.01057 9.79185 6.17972 9.14345C6.37705 8.41049 6.8563 7.67752 7.53289 7.00093C8.71691 5.8451 10.4084 5.08394 12.3254 4.85841C13.3684 4.74565 14.5807 4.91479 15.6237 5.45042C14.5525 4.80203 13.2275 4.60469 12.0998 4.71746ZM13.6222 7.79028C12.7764 8.01581 12.2972 8.80516 12.2126 9.56632L12.1844 9.82004C12.1973 10.2237 12.3063 10.6184 12.5024 10.9715C12.6985 11.3245 12.9761 11.6256 13.3121 11.8498C12.9456 11.6807 12.6355 11.4269 12.4099 11.0604C12.1281 10.6538 11.9713 10.1737 11.9589 9.67908L11.9871 9.45356C12.0717 8.6924 12.6355 7.84666 13.5094 7.62114C13.5094 7.62114 13.7349 7.7339 13.6222 7.79028ZM19.6551 7.98762C19.3449 6.63445 18.2173 5.56319 17.0333 4.8866C18.1327 5.56319 19.1476 6.57807 19.4577 7.84666C19.5705 8.3541 19.5987 8.91793 19.5423 9.39717C19.3449 10.694 18.5556 11.8216 17.3998 12.5264C16.7377 12.9511 15.9772 13.1976 15.1919 13.2421C14.4066 13.2865 13.6231 13.1274 12.9174 12.7801C13.9323 13.3721 15.2009 13.5413 16.4977 13.1466C16.9487 13.0338 17.3434 12.8083 17.6253 12.6391C18.7811 11.9626 19.5423 10.8349 19.7396 9.53813C19.8242 9.05888 19.796 8.46687 19.6551 7.98762ZM11.9871 12.1035C11.9307 12.0471 11.8461 12.0189 11.7615 12.0753C11.677 12.1035 11.6488 12.1599 11.6488 12.2445V18.5875C11.6488 20.5045 10.3238 21.6039 9.50626 22.0832C8.18128 22.9007 6.63077 23.0417 5.98238 22.7316L6.17972 22.8443C6.82811 23.1826 8.37862 23.0417 9.75998 22.1959C10.5493 21.7449 11.8743 20.6454 11.8743 18.7284V12.3854C11.8743 12.3009 11.9025 12.2445 11.9871 12.1881H12.0717L11.9871 12.1035ZM6.5462 12.6673C7.22279 12.6955 7.95575 12.329 8.32224 11.8216C8.46319 11.6243 8.57596 11.3705 8.57596 11.0323L8.54777 10.8631L8.35043 11.0323C8.32224 11.286 8.20947 11.5115 8.09671 11.6807C7.89115 11.9567 7.6229 12.1799 7.3141 12.3318C7.0053 12.4838 6.66479 12.5601 6.32067 12.5546C5.98238 12.5264 5.67228 12.47 5.44675 12.3572L5.33398 12.2727L5.67228 12.4982C5.89781 12.5828 6.20791 12.6391 6.5462 12.6673Z" fill="#0069B4"/>
<path d="M7.02495 21.4332C7.10952 21.6869 7.25047 21.9689 7.53238 22.0534C7.39143 21.9407 7.30686 21.7433 7.25047 21.5742C7.10952 21.2923 6.99675 21.0385 6.71484 20.9258C6.8558 21.0667 6.94037 21.2359 7.02495 21.4332Z" fill="#0069B4"/>
</g>
</g>
<defs>
<clipPath id="clip0_1557_12825">
<rect width="43.527" height="36" fill="white" transform="translate(0.34375 0.0605469)"/>
</clipPath>
</defs>
</svg>
