<svg width="36" height="37" viewBox="0 0 36 37" fill="none" xmlns="http://www.w3.org/2000/svg">
<g clip-path="url(#clip0_1557_12715)">
<path d="M26.4042 11.9773C26.4244 16.5093 22.7462 20.3703 18.0104 20.3764C13.3902 20.3818 9.59797 16.6573 9.60157 11.9686C9.60517 7.21878 13.473 3.55866 18.0184 3.56838C22.6721 3.5781 26.4269 7.37718 26.4042 11.9773ZM18.3348 8.65914C18.32 10.0149 19.4566 11.1136 20.7886 11.1133C22.0619 11.1133 23.2402 10.0851 23.243 8.65554C23.2459 7.21266 22.0673 6.1917 20.8008 6.18918C19.4918 6.18666 18.3193 7.27746 18.3348 8.65914Z" fill="#DB353A"/>
<path d="M34.2783 28.4233C34.2506 28.4139 34.2423 28.4201 34.2337 28.4345C34.0274 28.7844 33.7038 28.9745 33.3211 29.0493C32.6439 29.1836 32.0132 29.0537 31.4559 28.6389C30.9966 28.2969 30.7388 27.825 30.6639 27.2627C30.5809 26.6939 30.6702 26.1134 30.9203 25.5959C31.2849 24.8399 31.8897 24.3845 32.7051 24.2081C33.0356 24.1321 33.3768 24.115 33.7131 24.1577C34.5523 24.2725 35.1233 24.7261 35.4332 25.5091C35.5417 25.774 35.5979 26.0573 35.5988 26.3436C35.5927 27.1863 35.6287 28.028 35.6435 28.8704C35.6504 29.2029 35.5937 29.5337 35.4764 29.8449C35.2064 30.5592 34.7093 31.0459 33.986 31.2871C33.4034 31.4836 32.7751 31.4999 32.1831 31.3339C31.9645 31.2766 31.758 31.1801 31.5737 31.0491C31.2623 30.8252 31.0869 30.5318 31.1057 30.1369C31.1121 29.9979 31.1057 29.8583 31.1075 29.7189C31.1075 29.6916 31.1136 29.6628 31.1417 29.6538C31.1549 29.6509 31.1687 29.6519 31.1815 29.6565C31.1942 29.6612 31.2054 29.6693 31.2137 29.6801C31.3395 29.7986 31.4839 29.8959 31.641 29.9681C31.8577 30.0687 32.0871 30.1393 32.3228 30.1779C32.5632 30.2183 32.8074 30.2318 33.0507 30.2183C33.25 30.2118 33.4467 30.1711 33.6321 30.098C33.9864 29.954 34.1981 29.6901 34.2722 29.319C34.312 29.1297 34.3215 28.9353 34.3003 28.743C34.2888 28.6361 34.2855 28.5263 34.2783 28.4233ZM34.2528 26.6233C34.2528 26.2971 34.2168 26.0941 34.1271 25.8954C33.95 25.4969 33.6105 25.3129 33.1861 25.3345C32.7617 25.3561 32.4301 25.5671 32.2227 25.9425C32.1086 26.1417 32.0403 26.3637 32.0227 26.5926C32.0052 26.8214 32.0388 27.0513 32.1212 27.2655C32.2929 27.7335 32.7332 28.0604 33.3657 27.9287C33.7617 27.8459 34.0137 27.5881 34.1552 27.2169C34.2244 27.0272 34.2575 26.8263 34.2528 26.6244V26.6233Z" fill="#686767"/>
<path d="M4.99765 24.5526C4.94797 24.5483 4.92565 24.5112 4.89793 24.4849C4.53289 24.148 4.09477 23.9809 3.60805 23.9212C3.3181 23.8856 3.02485 23.8862 2.73505 23.923C2.5365 23.9418 2.34284 23.9955 2.16301 24.0817C1.86817 24.2329 1.72489 24.4727 1.73461 24.8061C1.73559 24.8826 1.75311 24.958 1.78599 25.0271C1.81886 25.0962 1.8663 25.1573 1.92505 25.2064C2.01656 25.2834 2.11925 25.346 2.22961 25.3921C2.48004 25.498 2.73959 25.5807 3.00505 25.6395C3.23041 25.6935 3.45793 25.7403 3.68149 25.8018C3.98379 25.8819 4.26908 26.016 4.52353 26.1978C4.88929 26.4635 5.13553 26.8138 5.18953 27.2645C5.31085 28.2617 4.91377 29.2189 3.81685 29.62C3.32293 29.8 2.80885 29.8432 2.28757 29.8021C2.02915 29.7876 1.77347 29.7417 1.52617 29.6653C1.35527 29.6122 1.19266 29.5353 1.04305 29.4371C0.699966 29.2038 0.521406 28.8802 0.512766 28.4651C0.508806 28.2793 0.512766 28.0936 0.512766 27.9078C0.512766 27.8664 0.546606 27.8488 0.578646 27.8718C0.621126 27.9035 0.661086 27.9388 0.702846 27.9712C1.33717 28.4637 2.05393 28.6552 2.84953 28.5623C3.02157 28.5466 3.19047 28.5062 3.35101 28.4424C3.52813 28.3675 3.67285 28.2552 3.75385 28.0767C3.85141 27.8607 3.85357 27.6385 3.79957 27.4146C3.77221 27.3016 3.69157 27.2184 3.60013 27.1489C3.49752 27.0753 3.38505 27.0166 3.26605 26.9743C2.96105 26.8638 2.64817 26.7765 2.33005 26.713C2.08948 26.665 1.8528 26.5993 1.62193 26.5164C1.36538 26.4247 1.12638 26.2898 0.915246 26.1175C0.501966 25.7698 0.327006 25.3191 0.369486 24.7931C0.446526 23.8675 0.960966 23.257 1.79401 22.8952C2.08743 22.7693 2.40187 22.6996 2.72101 22.6896C3.10621 22.6749 3.49033 22.6817 3.86797 22.7735C4.07537 22.8199 4.27438 22.898 4.45801 23.005C4.64954 23.1139 4.80612 23.2751 4.90945 23.4697C4.96831 23.5744 5.00288 23.6909 5.01061 23.8107C5.01673 24.0425 5.01853 24.2747 5.02033 24.5069C5.02033 24.5213 5.00701 24.5379 4.99765 24.5526Z" fill="#686767"/>
<path d="M11.8761 27.5546C11.631 27.5546 11.3854 27.5546 11.1399 27.5546C11.065 27.5546 11.0453 27.5805 11.0611 27.6529C11.1002 27.8353 11.1835 28.0052 11.3037 28.1479C11.5219 28.4074 11.8056 28.5536 12.1317 28.6267C12.401 28.6871 12.6717 28.6767 12.9439 28.654C13.149 28.6375 13.3515 28.5977 13.5476 28.5352C13.7827 28.4626 14.0012 28.3445 14.1909 28.1878C14.232 28.1518 14.2726 28.1713 14.2726 28.222C14.2726 28.4143 14.2842 28.6061 14.2525 28.798C14.2327 28.9329 14.185 29.0622 14.1124 29.1776C14.0398 29.2931 13.944 29.3921 13.8309 29.4683C13.6381 29.5993 13.4197 29.6877 13.1901 29.7279C12.7851 29.8071 12.3776 29.8406 11.964 29.7862C10.975 29.657 10.0372 28.9435 9.74385 27.8498C9.65285 27.5098 9.62167 27.1565 9.65169 26.8058C9.67187 26.4946 9.73126 26.1873 9.82845 25.891C10.0254 25.3215 10.3584 24.8546 10.8724 24.5284C11.2148 24.3124 11.5906 24.1969 11.9928 24.1515C12.409 24.0985 12.8319 24.1588 13.2168 24.3261C13.8597 24.6098 14.2716 25.0925 14.4231 25.7837C14.4801 26.0233 14.4883 26.2718 14.4472 26.5145C14.3943 26.8025 14.2525 27.0322 14.0052 27.1935C13.8244 27.3056 13.6255 27.3851 13.4173 27.4286C13.1 27.4997 12.7765 27.5393 12.4514 27.5467C12.2592 27.5524 12.0669 27.5467 11.8754 27.5467L11.8761 27.5546ZM11.7148 26.5977C11.9834 26.5948 12.2747 26.5977 12.5641 26.5563C12.7021 26.5404 12.8374 26.5059 12.9662 26.4537C13.0381 26.4261 13.0996 26.3768 13.1422 26.3127C13.1849 26.2486 13.2065 26.1728 13.2042 26.0959C13.2085 25.7881 13.0861 25.517 12.7722 25.3759C12.4916 25.2497 12.1761 25.2242 11.879 25.3039C11.5208 25.3967 11.2865 25.6379 11.141 25.9713C11.0708 26.1315 11.0506 26.3025 11.0355 26.4753C11.0262 26.5793 11.0373 26.5945 11.1367 26.5955C11.3217 26.5991 11.5071 26.5977 11.7148 26.5977Z" fill="#686767"/>
<path d="M29.802 27.9064C29.802 28.4104 29.802 28.9144 29.802 29.4184C29.802 29.4584 29.802 29.4983 29.802 29.5379C29.7988 29.6881 29.7963 29.6913 29.6433 29.6927C29.4841 29.6927 29.3247 29.6985 29.1681 29.6614C28.8253 29.5804 28.5838 29.3878 28.4815 29.0419C28.4509 28.9385 28.4549 28.8316 28.4549 28.7254C28.4549 28.0551 28.4549 27.3849 28.4549 26.7148C28.4573 26.5089 28.4349 26.3034 28.3879 26.1028C28.3614 25.9931 28.3195 25.8876 28.2634 25.7896C28.1652 25.6138 28.0068 25.4794 27.8173 25.4113C27.5861 25.3226 27.333 25.3079 27.093 25.3691C26.8847 25.4207 26.7037 25.5494 26.5865 25.7291C26.4833 25.8844 26.4174 26.0615 26.3939 26.2465C26.3739 26.391 26.3638 26.5368 26.3637 26.6828C26.3653 27.6121 26.3653 28.5411 26.3637 29.4699C26.3637 29.7133 26.3795 29.6927 26.1354 29.6927C26.0029 29.6978 25.8702 29.6891 25.7394 29.6668C25.3294 29.5833 25.0716 29.3068 25.0277 28.8943C25.0206 28.8216 25.0172 28.7487 25.0176 28.6757C25.0176 27.9653 25.0176 27.2553 25.0176 26.5456C25.0176 26.2576 25.0446 25.9754 25.1346 25.7014C25.3679 24.9919 25.8334 24.5066 26.5465 24.2751C27.0826 24.1012 27.6265 24.0764 28.173 24.2333C29.0309 24.4807 29.541 25.0559 29.7376 25.9192C29.7833 26.1409 29.8048 26.3668 29.8017 26.5931C29.8038 27.0302 29.802 27.4683 29.802 27.9064Z" fill="#676767"/>
<path d="M6.12038 26.1098C6.12038 25.5586 6.12038 25.0078 6.12038 24.457C6.11802 24.3509 6.12379 24.2447 6.13766 24.1395C6.20642 23.6971 6.46778 23.3813 6.82166 23.1337C6.99518 23.0127 7.19678 23.0152 7.39766 23.0314C7.41454 23.0324 7.43032 23.0401 7.44158 23.0527C7.45285 23.0653 7.45867 23.0819 7.45778 23.0987C7.4603 23.1452 7.4603 23.1916 7.4603 23.2381C7.4603 23.5034 7.4603 23.7691 7.4603 24.0344C7.4603 24.0808 7.4603 24.1273 7.4603 24.1737C7.45899 24.1837 7.45992 24.1938 7.46301 24.2033C7.4661 24.2129 7.47128 24.2217 7.47817 24.229C7.48507 24.2363 7.4935 24.2419 7.50286 24.2456C7.51223 24.2492 7.52228 24.2507 7.5323 24.25C7.58558 24.25 7.6385 24.2522 7.69142 24.2522H9.08534C9.1253 24.2522 9.1649 24.2522 9.20486 24.2522C9.3341 24.2551 9.33698 24.2572 9.33914 24.3886C9.33914 24.5017 9.33914 24.6143 9.33914 24.727C9.33662 25.1108 9.10442 25.3811 8.72426 25.4362C8.62555 25.449 8.52608 25.4551 8.42654 25.4546C8.18102 25.4571 7.9355 25.4546 7.68998 25.4546C7.64354 25.4546 7.5971 25.4546 7.55066 25.4546C7.48622 25.4582 7.46534 25.4773 7.46138 25.5359C7.4585 25.5755 7.45922 25.6155 7.45922 25.6555C7.45922 26.2857 7.45922 26.9162 7.45922 27.5469C7.45409 27.6996 7.4702 27.8522 7.5071 28.0005C7.59998 28.3245 7.79906 28.5045 8.14682 28.5362C8.5187 28.5679 8.88986 28.5484 9.23798 28.3843C9.31178 28.3483 9.33698 28.3652 9.33806 28.4426C9.33806 28.5866 9.34346 28.7349 9.33806 28.8803C9.32114 29.231 9.1523 29.4808 8.82974 29.6252C8.70867 29.6802 8.5794 29.715 8.44706 29.7281C8.07482 29.7641 7.70438 29.7497 7.3433 29.6396C6.74066 29.4563 6.3623 29.0553 6.20174 28.4483C6.1448 28.2297 6.11672 28.0046 6.11822 27.7787C6.11822 27.2215 6.11822 26.6641 6.11822 26.1065L6.12038 26.1098Z" fill="#686868"/>
<path d="M18.9434 25.4176C18.9434 24.4888 18.9434 23.5603 18.9434 22.632C18.9434 22.4412 18.9373 22.4487 19.1291 22.4494C19.2289 22.4494 19.3282 22.4494 19.4276 22.4516C19.5405 22.4546 19.6522 22.4767 19.7577 22.5171C20.0295 22.615 20.1922 22.8098 20.2617 23.0874C20.2874 23.204 20.2987 23.3233 20.2955 23.4427C20.2955 24.8884 20.2955 26.3342 20.2955 27.78C20.2955 27.8728 20.2955 27.9661 20.3017 28.0582C20.3243 28.3376 20.4698 28.5122 20.7376 28.5838C20.853 28.6148 20.972 28.6303 21.0915 28.6299C21.2243 28.6299 21.3568 28.6299 21.4897 28.6321C21.5339 28.6321 21.5685 28.6494 21.5699 28.699C21.575 28.879 21.5825 29.059 21.5339 29.2326C21.5098 29.3331 21.4606 29.4258 21.3909 29.5022C21.3212 29.5786 21.2333 29.636 21.1354 29.6692C21.0427 29.7037 20.9459 29.7256 20.8474 29.7344C20.5494 29.7617 20.2489 29.7305 19.9629 29.6426C19.4175 29.4698 19.1072 29.0896 18.9909 28.5381C18.9583 28.3686 18.9436 28.1962 18.947 28.0237C18.9448 27.1551 18.9436 26.2864 18.9434 25.4176Z" fill="#686868"/>
<path d="M16.6186 27.9594C16.6186 28.4775 16.6186 28.9953 16.6186 29.5128C16.6186 29.6928 16.6165 29.6928 16.4455 29.6928C16.2745 29.6928 16.1002 29.6964 15.9303 29.6568C15.6247 29.5884 15.3961 29.4278 15.2989 29.1168C15.2678 29.015 15.2524 28.9092 15.2532 28.8028C15.2532 27.9666 15.2492 27.1303 15.2557 26.294C15.2527 25.9409 15.3264 25.5913 15.4717 25.2694C15.7449 24.6826 16.2046 24.3442 16.8397 24.2388C17.1015 24.1902 17.3702 24.1913 17.6317 24.242C17.7556 24.266 17.8744 24.3116 17.9827 24.3766C18.1043 24.4466 18.2055 24.5471 18.2763 24.6682C18.3471 24.7893 18.385 24.9268 18.3862 25.0671C18.3913 25.1996 18.3888 25.3324 18.3862 25.4653C18.3862 25.5618 18.3603 25.5769 18.262 25.5459C18.2178 25.5322 18.1746 25.5146 18.1303 25.5006C17.8763 25.42 17.6078 25.3964 17.3437 25.4314C17.0406 25.4718 16.8314 25.6352 16.7191 25.9192C16.6684 26.0423 16.639 26.173 16.632 26.3059C16.6255 26.4582 16.6201 26.6108 16.6197 26.7634C16.6176 27.162 16.6186 27.5601 16.6186 27.9594Z" fill="#686868"/>
<path d="M22.0923 26.3852C22.0923 25.7742 22.0923 25.1635 22.0923 24.5532C22.0923 24.3764 22.0923 24.3761 22.264 24.3732C22.4232 24.3665 22.5827 24.376 22.7399 24.4016C23.0963 24.4736 23.3159 24.6846 23.402 25.0349C23.4317 25.1647 23.4456 25.2977 23.4434 25.4309C23.4417 26.2274 23.4417 27.024 23.4434 27.8205C23.4434 27.9066 23.4412 27.9933 23.4495 28.079C23.4751 28.34 23.5913 28.5373 23.9078 28.6017C24.0517 28.6254 24.1976 28.6348 24.3434 28.6298C24.5209 28.6298 24.5201 28.628 24.5191 28.8048C24.5242 28.9507 24.5135 29.0968 24.487 29.2404C24.4301 29.4924 24.2829 29.6497 24.0291 29.7084C23.9452 29.728 23.8596 29.7391 23.7735 29.7415C23.561 29.7484 23.3486 29.7241 23.1431 29.6695C22.6391 29.5313 22.3209 29.2044 22.1762 28.7069C22.1179 28.5023 22.0895 28.2903 22.0919 28.0776C22.0919 27.5135 22.0919 26.9493 22.0919 26.3856L22.0923 26.3852Z" fill="#686868"/>
<path d="M21.9718 23.0779C21.9723 22.8705 22.0549 22.6716 22.2015 22.5249C22.3482 22.3782 22.547 22.2955 22.7544 22.2949C23.1908 22.2949 23.5652 22.6625 23.5515 23.0902C23.5487 23.2983 23.4645 23.4971 23.3169 23.644C23.1694 23.7909 22.9702 23.8742 22.762 23.876C22.6573 23.8768 22.5536 23.8566 22.4569 23.8166C22.3602 23.7767 22.2724 23.7178 22.1988 23.6434C22.1252 23.5691 22.0671 23.4807 22.0282 23.3836C21.9892 23.2865 21.97 23.1826 21.9718 23.0779Z" fill="#686868"/>
<path d="M21.9458 31.5627C21.9846 31.5267 22.0178 31.4958 22.0538 31.4691C22.2838 31.2974 22.6517 31.3899 22.7018 31.7136C22.7115 31.759 22.7179 31.8051 22.7208 31.8515C22.723 32.0437 22.7208 32.2363 22.7208 32.4275C22.7208 32.4674 22.7208 32.5121 22.6683 32.5203C22.6451 32.5241 22.6214 32.5207 22.6001 32.5108C22.5789 32.5008 22.5611 32.4847 22.5491 32.4645C22.5301 32.4292 22.5222 32.3889 22.5264 32.349C22.5264 32.2032 22.5264 32.057 22.5264 31.9109C22.5287 31.8377 22.5157 31.7649 22.4883 31.697C22.4483 31.6045 22.3781 31.566 22.2626 31.5714C22.1546 31.5764 22.0782 31.6272 22.0556 31.724C22.0405 31.795 22.0329 31.8674 22.0329 31.94C22.0296 32.0995 22.0329 32.2586 22.0329 32.4181C22.0329 32.457 22.0372 32.502 21.99 32.5193C21.9608 32.5263 21.9299 32.5219 21.9038 32.507C21.8776 32.4921 21.8581 32.4677 21.8493 32.439C21.8403 32.3936 21.8359 32.3474 21.8363 32.3011C21.8345 32.1816 21.8363 32.0621 21.8345 31.9411C21.834 31.8749 21.8265 31.8089 21.8122 31.7442C21.8012 31.6916 21.7714 31.6449 21.7284 31.6127C21.6854 31.5805 21.6321 31.565 21.5786 31.5692C21.4659 31.5714 21.4014 31.6236 21.3626 31.7399C21.3436 31.8102 21.336 31.8831 21.3399 31.9559C21.3399 32.1218 21.3399 32.2878 21.337 32.4537C21.3371 32.4652 21.3343 32.4765 21.3288 32.4865C21.3232 32.4965 21.3152 32.5049 21.3054 32.5109C21.2956 32.5168 21.2845 32.5202 21.273 32.5205C21.2616 32.5208 21.2503 32.5182 21.2402 32.5128C21.1653 32.4854 21.1451 32.4253 21.1448 32.3551C21.1448 32.1823 21.1408 32.0099 21.1473 31.8374C21.1509 31.7712 21.1661 31.7061 21.1923 31.6452C21.2372 31.5402 21.3213 31.4569 21.4267 31.4128C21.5321 31.3688 21.6505 31.3676 21.7568 31.4094C21.8338 31.4436 21.8853 31.5048 21.9458 31.5627Z" fill="#706E6E"/>
<path d="M26.1897 31.7843C26.1995 31.8203 26.2322 31.8304 26.2574 31.8487C26.4734 32.0043 26.4047 32.307 26.2391 32.4345C26.2026 32.4631 26.1614 32.4852 26.1174 32.4996C25.945 32.5505 25.762 32.5538 25.5878 32.5093C25.4741 32.4827 25.4111 32.3967 25.3974 32.2793C25.3942 32.2463 25.393 32.2131 25.3938 32.1799C25.3938 31.888 25.3938 31.596 25.3938 31.3041C25.3938 31.1471 25.3956 31.1457 25.5554 31.1147C25.7123 31.0849 25.8731 31.0819 26.031 31.1057C26.2243 31.1338 26.3795 31.2695 26.36 31.5067C26.3571 31.5804 26.326 31.6501 26.2733 31.7015C26.2466 31.7285 26.2034 31.7415 26.1897 31.7843ZM25.5875 32.0723C25.5875 32.1054 25.5875 32.1382 25.5875 32.1713C25.5867 32.1845 25.5867 32.1977 25.5875 32.2109C25.5961 32.2926 25.6278 32.3391 25.7016 32.3524C25.8182 32.3788 25.9398 32.3724 26.0529 32.334C26.1609 32.2926 26.2038 32.2109 26.193 32.0791C26.184 31.9711 26.1365 31.9107 26.0259 31.8894C25.9481 31.8754 25.8692 31.8682 25.7901 31.8678C25.5781 31.8653 25.5864 31.8581 25.5875 32.073V32.0723ZM25.8099 31.7123C25.8823 31.7087 25.9544 31.7012 26.0259 31.6896C26.1167 31.6705 26.1653 31.5996 26.1699 31.5013C26.1735 31.3973 26.1339 31.3318 26.0483 31.2969C25.9674 31.2687 25.8816 31.2578 25.7963 31.2648C25.5997 31.2709 25.5871 31.2832 25.5875 31.4808C25.5853 31.7227 25.5684 31.7055 25.8099 31.7116V31.7123Z" fill="#737070"/>
<path d="M12.5941 31.8472C12.5887 31.94 12.5715 32.0317 12.543 32.1201C12.4433 32.3955 12.2248 32.5521 11.9396 32.5464C11.8061 32.5458 11.6763 32.5014 11.5704 32.42C11.4646 32.3386 11.3884 32.2246 11.3536 32.0956C11.2945 31.9042 11.2993 31.6987 11.3672 31.5103C11.4691 31.2205 11.6912 31.0761 12.0113 31.0909C12.2788 31.1031 12.4894 31.2777 12.5624 31.5535C12.5884 31.6491 12.5991 31.7483 12.5941 31.8472ZM11.5055 31.7976C11.5026 31.8837 11.5148 31.9697 11.5415 32.0517C11.598 32.2551 11.755 32.3692 11.967 32.3685C12.165 32.3685 12.314 32.2519 12.372 32.0532C12.4152 31.9001 12.4152 31.7382 12.372 31.5852C12.3173 31.3771 12.1715 31.2651 11.953 31.2612C11.7467 31.2612 11.5987 31.3656 11.539 31.5636C11.5133 31.6388 11.5019 31.7181 11.5055 31.7976Z" fill="#706E6E"/>
<path d="M14.9097 32.274C14.9439 32.3892 14.8946 32.4514 14.8107 32.495C14.5317 32.639 14.1714 32.5051 14.0681 32.2106C14.0315 32.1137 14.0182 32.0097 14.0291 31.9067C14.0399 31.8038 14.0747 31.7048 14.1307 31.6177C14.1944 31.511 14.2974 31.4336 14.4176 31.4021C14.5378 31.3707 14.6655 31.3877 14.7733 31.4496C14.8407 31.4865 14.8952 31.5432 14.9294 31.6121C14.9636 31.681 14.9758 31.7587 14.9645 31.8348C14.9615 31.8713 14.9487 31.9064 14.9273 31.9362C14.9059 31.9661 14.8768 31.9895 14.8431 32.004C14.77 32.0364 14.6906 32.0526 14.6106 32.0515C14.5047 32.0515 14.3985 32.0515 14.2923 32.0558C14.2842 32.0563 14.2763 32.0587 14.2693 32.0627C14.2622 32.0668 14.2562 32.0724 14.2517 32.0792C14.2472 32.0859 14.2442 32.0936 14.2432 32.1017C14.2421 32.1097 14.2429 32.1179 14.2455 32.1256C14.2815 32.2635 14.3957 32.3539 14.5515 32.3661C14.6531 32.374 14.7218 32.3568 14.9097 32.274ZM14.4975 31.8945C14.5292 31.8924 14.6091 31.8913 14.6869 31.8794C14.7549 31.869 14.7834 31.8168 14.7744 31.7476C14.7718 31.7109 14.7583 31.6759 14.7357 31.6469C14.7131 31.6179 14.6823 31.5963 14.6473 31.5849C14.4885 31.5316 14.2974 31.5813 14.2412 31.789C14.2225 31.8582 14.243 31.8913 14.3114 31.8942C14.3575 31.8963 14.4032 31.8945 14.4975 31.8945Z" fill="#737070"/>
<path d="M23.8661 32.2593C23.8826 32.4148 23.8142 32.4829 23.7123 32.5135C23.3354 32.6254 23.0471 32.4368 22.9833 32.1059C22.9492 31.9413 22.9798 31.7699 23.0687 31.6271C23.1961 31.4191 23.4402 31.3316 23.6547 31.4176C23.721 31.4409 23.7798 31.4816 23.825 31.5353C23.8702 31.5891 23.9002 31.654 23.9118 31.7233C23.9334 31.841 23.8999 31.9871 23.7253 32.026C23.6738 32.0379 23.6214 32.0458 23.5687 32.0494C23.4891 32.0537 23.4092 32.0494 23.33 32.0534C23.2857 32.0534 23.2274 32.0343 23.2026 32.08C23.1705 32.1398 23.2098 32.1945 23.2479 32.2409C23.3369 32.3489 23.4557 32.3767 23.5881 32.363C23.6872 32.3488 23.782 32.3135 23.8661 32.2593ZM23.1821 31.8838C23.3255 31.9019 23.4708 31.9012 23.6141 31.8817C23.717 31.8687 23.753 31.7866 23.7062 31.6916C23.6936 31.6647 23.6755 31.6407 23.6531 31.6212C23.6306 31.6018 23.6043 31.5872 23.5759 31.5785C23.3667 31.5119 23.1893 31.6459 23.1839 31.8842L23.1821 31.8838Z" fill="#737070"/>
<path d="M26.673 31.6772C26.646 31.5984 26.6799 31.539 26.7371 31.4875C26.8865 31.3536 27.1943 31.35 27.3491 31.4803C27.3834 31.5069 27.4117 31.5405 27.4321 31.5787C27.4526 31.617 27.4648 31.6591 27.4679 31.7024C27.4755 31.8824 27.4784 32.0603 27.4679 32.2385C27.4656 32.2988 27.4447 32.357 27.4081 32.4052C27.3715 32.4533 27.321 32.489 27.2634 32.5074C27.1265 32.5624 26.9734 32.5614 26.8372 32.5045C26.704 32.4491 26.6187 32.3547 26.6212 32.2028C26.6194 32.1359 26.639 32.0701 26.677 32.0149C26.7151 31.9598 26.7697 31.9182 26.8329 31.8961C26.8883 31.8748 26.9461 31.86 27.005 31.8522C27.0636 31.8432 27.1238 31.8443 27.185 31.8399C27.2645 31.8342 27.2908 31.8 27.275 31.7262C27.2694 31.6863 27.2502 31.6496 27.2207 31.6222C27.1912 31.5949 27.1531 31.5786 27.113 31.5761C27.0011 31.556 26.8857 31.5733 26.7846 31.6254C26.7486 31.6437 26.7238 31.6801 26.673 31.6772ZM27.1356 32.0077C27.0057 32.0077 26.9488 32.0199 26.8898 32.0603C26.8707 32.0732 26.8547 32.0901 26.843 32.1099C26.8312 32.1297 26.824 32.1518 26.8218 32.1747C26.8196 32.1976 26.8225 32.2207 26.8302 32.2424C26.838 32.264 26.8505 32.2837 26.8667 32.3C26.9535 32.3771 27.0557 32.3843 27.1623 32.3504C27.2616 32.3187 27.2811 32.2374 27.2825 32.1467C27.2825 32.1272 27.2825 32.1074 27.2825 32.0876C27.2789 32.0282 27.2613 32.0117 27.1954 32.0081C27.1752 32.007 27.1554 32.0077 27.1356 32.0077Z" fill="#737070"/>
<path d="M29.1488 31.8319C29.2208 31.824 29.237 31.7844 29.2633 31.7567C29.345 31.6703 29.4256 31.5821 29.507 31.4953C29.5408 31.4556 29.586 31.4274 29.6365 31.4145C29.687 31.4016 29.7402 31.4047 29.7889 31.4233C29.7889 31.4694 29.7529 31.4831 29.732 31.5054C29.6352 31.6051 29.5351 31.7019 29.4404 31.8035C29.3187 31.9338 29.3187 31.9115 29.4357 32.0612C29.5416 32.1969 29.6467 32.3334 29.7939 32.4291C29.8216 32.4471 29.8101 32.4972 29.7781 32.5105C29.7452 32.5268 29.7081 32.5327 29.6717 32.5275C29.6353 32.5223 29.6014 32.5062 29.5743 32.4813C29.5208 32.4321 29.4705 32.3794 29.4238 32.3237C29.3547 32.2434 29.2892 32.1599 29.2222 32.0778C29.2171 32.0696 29.2094 32.0635 29.2002 32.0604C29.1911 32.0573 29.1812 32.0575 29.1722 32.0609C29.1463 32.0699 29.1506 32.0925 29.1502 32.1105C29.1477 32.2297 29.1481 32.3489 29.1445 32.468C29.1436 32.4778 29.1404 32.4873 29.1351 32.4956C29.1297 32.5039 29.1224 32.5107 29.1139 32.5155C29.1053 32.5204 29.0956 32.523 29.0858 32.5233C29.0759 32.5235 29.0662 32.5214 29.0574 32.517C29.038 32.5121 29.0204 32.502 29.0063 32.4879C28.9922 32.4738 28.9822 32.4561 28.9774 32.4367C28.9695 32.3978 28.9652 32.3583 28.9648 32.3186C28.9648 31.9281 28.9648 31.5373 28.9648 31.1461C28.9648 31.1331 28.9648 31.1198 28.9648 31.1065C28.967 31.0658 28.9695 31.0237 29.0232 31.0205C29.0464 31.0173 29.0701 31.0222 29.0902 31.0343C29.1103 31.0464 29.1256 31.065 29.1337 31.0871C29.1448 31.125 29.1497 31.1645 29.1481 31.2041C29.1481 31.3499 29.1481 31.4957 29.1481 31.6415L29.1488 31.8319Z" fill="#706E6E"/>
<path d="M8.66785 31.9672C8.67021 32.0501 8.65626 32.1327 8.62681 32.2102C8.55841 32.4007 8.43097 32.5209 8.22109 32.5403C8.01121 32.5598 7.81501 32.4665 7.72393 32.2804C7.66998 32.1768 7.64378 32.0609 7.64788 31.9442C7.65198 31.8274 7.68624 31.7137 7.74733 31.6141C7.84165 31.4499 7.99933 31.3797 8.18329 31.3873C8.27402 31.3872 8.36275 31.4139 8.43847 31.4639C8.51418 31.5139 8.57354 31.585 8.60917 31.6684C8.65219 31.762 8.6723 31.8644 8.66785 31.9672ZM8.47165 31.9769C8.4778 31.8876 8.45832 31.7983 8.41549 31.7195C8.31289 31.5338 8.03389 31.5183 7.91581 31.6907C7.81249 31.8409 7.82257 32.1112 7.93813 32.2509C7.97147 32.2924 8.01525 32.3243 8.06497 32.3433C8.1147 32.3622 8.16859 32.3676 8.22109 32.3589C8.33665 32.3441 8.40793 32.2711 8.44573 32.1613C8.46493 32.1018 8.4737 32.0394 8.47165 31.9769Z" fill="#706E6E"/>
<path d="M20.8915 31.9574C20.8931 32.0485 20.8767 32.139 20.8432 32.2238C20.7748 32.4067 20.6478 32.5201 20.4472 32.5392C20.2467 32.5582 20.0822 32.4888 19.9681 32.3188C19.8295 32.1115 19.845 31.7645 19.9983 31.5679C20.2107 31.2957 20.66 31.3375 20.8206 31.6442C20.8678 31.7418 20.8921 31.849 20.8915 31.9574ZM20.696 31.9823C20.6999 31.8861 20.6769 31.7907 20.6298 31.7068C20.5218 31.5337 20.2572 31.5225 20.1409 31.6867C20.035 31.8361 20.0422 32.1068 20.1567 32.2472C20.291 32.4114 20.5815 32.4168 20.6661 32.1666C20.6869 32.1079 20.697 32.0459 20.696 31.9837V31.9823Z" fill="#706E6E"/>
<path d="M8.92345 31.7704C8.92345 31.6775 8.92345 31.585 8.92345 31.4921C8.92345 31.4561 8.93101 31.4237 8.96917 31.414C8.98531 31.4098 9.00219 31.4093 9.01853 31.4127C9.03487 31.416 9.05025 31.4229 9.06349 31.4331C9.07685 31.4429 9.088 31.4554 9.09619 31.4698C9.10438 31.4841 9.10943 31.5001 9.11101 31.5166C9.11569 31.5627 9.11821 31.6088 9.11857 31.6552C9.11857 31.761 9.11641 31.8672 9.12037 31.9731C9.12093 32.0391 9.12939 32.1049 9.14557 32.1689C9.15415 32.2028 9.16961 32.2347 9.191 32.2623C9.21239 32.29 9.23925 32.3131 9.2699 32.3299C9.30056 32.3468 9.33436 32.3572 9.3692 32.3605C9.40405 32.3637 9.43919 32.3598 9.47245 32.3489C9.50836 32.3408 9.54142 32.3231 9.56815 32.2977C9.59488 32.2724 9.6143 32.2403 9.62437 32.2049C9.64428 32.1347 9.65351 32.0619 9.65173 31.9889C9.65173 31.8233 9.65173 31.6577 9.65173 31.4921C9.65173 31.459 9.65173 31.423 9.69457 31.414C9.71065 31.4095 9.72756 31.4089 9.7439 31.4123C9.76025 31.4157 9.77555 31.4229 9.78853 31.4334C9.80801 31.4509 9.82285 31.4729 9.83173 31.4975C9.84191 31.5289 9.84714 31.5617 9.84721 31.5947C9.84721 31.7538 9.84721 31.9126 9.84721 32.0717C9.84611 32.0982 9.84322 32.1245 9.83857 32.1506C9.78997 32.4666 9.50017 32.633 9.20209 32.5142C9.13972 32.4905 9.08412 32.4518 9.04018 32.4016C8.99624 32.3514 8.96531 32.2911 8.95009 32.2262C8.93305 32.1553 8.92304 32.083 8.92021 32.0102C8.91517 31.931 8.92021 31.8514 8.92021 31.7718L8.92345 31.7704Z" fill="#737070"/>
<path d="M16.6974 31.389C16.6546 31.389 16.6312 31.3509 16.598 31.3325C16.5307 31.2927 16.4549 31.2695 16.3769 31.2646C16.2988 31.2597 16.2208 31.2734 16.149 31.3045C16.0773 31.3357 16.0139 31.3833 15.9641 31.4436C15.9143 31.5039 15.8795 31.5751 15.8626 31.6515C15.8291 31.7949 15.845 31.9454 15.9076 32.0788C16.0084 32.3088 16.2614 32.4147 16.5062 32.3405C16.5624 32.3206 16.6158 32.2934 16.665 32.2599C16.6701 32.2572 16.6758 32.2558 16.6816 32.2558C16.6873 32.2558 16.693 32.2572 16.6981 32.2599C16.7022 32.2648 16.7053 32.2706 16.7072 32.2768C16.709 32.2829 16.7096 32.2894 16.7089 32.2959C16.7053 32.3324 16.6931 32.3675 16.6734 32.3984C16.6536 32.4293 16.6268 32.4551 16.5952 32.4737C16.5505 32.5025 16.5006 32.5222 16.4483 32.5317C16.3205 32.5581 16.1877 32.5451 16.0676 32.4943C15.9474 32.4435 15.8455 32.3573 15.7754 32.2473C15.6091 31.9769 15.6023 31.6954 15.756 31.416C15.8788 31.1932 16.1243 31.0467 16.4501 31.0953C16.5067 31.101 16.5606 31.1226 16.6055 31.1576C16.6505 31.1925 16.6847 31.2394 16.7042 31.2929C16.7115 31.3081 16.7147 31.325 16.7135 31.3419C16.7123 31.3587 16.7068 31.375 16.6974 31.389Z" fill="#737070"/>
<path d="M28.6788 32.1389C28.6788 32.2382 28.6788 32.3376 28.6788 32.4369C28.6788 32.4769 28.6763 32.519 28.6212 32.5233C28.5981 32.5279 28.5742 32.5245 28.5533 32.5136C28.5324 32.5027 28.5159 32.4851 28.5064 32.4636C28.4932 32.4263 28.4868 32.3869 28.4876 32.3473C28.4851 32.2148 28.4876 32.0823 28.4855 31.9513C28.4854 31.8851 28.4798 31.8189 28.4686 31.7537C28.447 31.6457 28.3735 31.5873 28.259 31.5737C28.1251 31.5596 28.0387 31.5985 27.989 31.6946C27.9598 31.7543 27.9459 31.8204 27.9487 31.8869C27.9487 32.046 27.9487 32.2051 27.9487 32.3642C27.9495 32.4039 27.9473 32.4436 27.9422 32.483C27.9372 32.5122 27.9109 32.5219 27.8825 32.5226C27.8591 32.5239 27.8359 32.5176 27.8165 32.5047C27.797 32.4917 27.7822 32.4727 27.7745 32.4506C27.7632 32.4197 27.7576 32.387 27.7579 32.3541C27.7565 32.1885 27.7565 32.0229 27.7579 31.8573C27.7605 31.777 27.783 31.6985 27.8232 31.6289C27.8634 31.5593 27.9202 31.5007 27.9885 31.4583C28.0568 31.4159 28.1345 31.391 28.2147 31.3858C28.2949 31.3806 28.3752 31.3953 28.4484 31.4286C28.5091 31.4564 28.5612 31.5 28.5992 31.5548C28.6372 31.6097 28.6597 31.6738 28.6644 31.7403C28.6792 31.8714 28.6792 32.0046 28.6856 32.1363L28.6788 32.1389Z" fill="#706E6E"/>
<path d="M16.9135 31.7887C16.9135 31.6829 16.9135 31.577 16.9135 31.4712C16.9135 31.4273 16.9521 31.4053 16.9963 31.414C17.0228 31.418 17.0472 31.4309 17.0655 31.4505C17.0838 31.4701 17.0949 31.4952 17.0971 31.522C17.1028 31.5744 17.1052 31.6272 17.1043 31.68C17.1069 31.819 17.1025 31.9583 17.1115 32.0969C17.1191 32.2182 17.1785 32.3104 17.3016 32.3489C17.3328 32.3605 17.3661 32.3654 17.3993 32.3632C17.4325 32.3611 17.4649 32.3521 17.4944 32.3366C17.5238 32.3212 17.5497 32.2997 17.5703 32.2736C17.591 32.2475 17.6059 32.2173 17.6141 32.1851C17.6278 32.1272 17.634 32.0678 17.6325 32.0083C17.635 31.8431 17.6325 31.6775 17.6346 31.5119C17.6346 31.4737 17.6292 31.4287 17.6814 31.4161C17.7073 31.4101 17.7345 31.4133 17.7583 31.4253C17.7821 31.4373 17.8008 31.4572 17.8114 31.4816C17.82 31.4995 17.8252 31.5188 17.8265 31.5385C17.8265 31.7372 17.8369 31.9345 17.8233 32.134C17.8049 32.3939 17.6364 32.5408 17.3779 32.5462C17.1292 32.5512 16.9459 32.3986 16.9186 32.1458C16.9109 32.027 16.9101 31.9077 16.9161 31.7887H16.9135Z" fill="#737070"/>
<path d="M13.7664 32.1175C13.7664 32.237 13.7686 32.3561 13.7664 32.4753C13.7664 32.516 13.7304 32.5279 13.6944 32.5235C13.6307 32.516 13.5933 32.4854 13.5839 32.4281C13.5786 32.3888 13.5763 32.3491 13.5771 32.3093C13.5771 32.1902 13.5771 32.0707 13.5771 31.9511C13.5782 31.9048 13.577 31.8584 13.5735 31.8122C13.5522 31.6102 13.3593 31.5065 13.1775 31.5994C13.1446 31.6158 13.1164 31.6401 13.0952 31.6702C13.0741 31.7002 13.0608 31.735 13.0565 31.7715C13.0487 31.8312 13.0454 31.8913 13.0464 31.9515C13.0464 32.1106 13.0464 32.2697 13.0464 32.4289C13.0464 32.4681 13.0464 32.512 12.9964 32.5235C12.9703 32.5292 12.943 32.5255 12.9194 32.5131C12.8957 32.5006 12.8772 32.4803 12.8671 32.4555C12.8587 32.4306 12.854 32.4044 12.8535 32.3781C12.8535 32.1981 12.847 32.0181 12.8535 31.841C12.8725 31.4173 13.2635 31.3193 13.522 31.4227C13.6818 31.4864 13.7509 31.6199 13.7653 31.7827C13.7751 31.8943 13.7671 32.0077 13.7671 32.1203L13.7664 32.1175Z" fill="#747373"/>
<path d="M18.1106 32.259C18.1868 32.3007 18.2678 32.3329 18.3518 32.3548C18.4296 32.373 18.5111 32.3675 18.5858 32.3389C18.6111 32.3305 18.6331 32.3143 18.6488 32.2928C18.6645 32.2712 18.673 32.2453 18.6733 32.2187C18.6779 32.1922 18.6732 32.1649 18.6601 32.1413C18.647 32.1178 18.6263 32.0995 18.6013 32.0894C18.534 32.0632 18.4638 32.0437 18.3947 32.0218C18.3368 32.0081 18.28 31.9901 18.2247 31.9681C18.0973 31.9062 18.0534 31.7881 18.098 31.6513C18.1137 31.6005 18.1412 31.5541 18.1783 31.516C18.3101 31.3817 18.5678 31.3428 18.7323 31.4353C18.7662 31.4558 18.7963 31.482 18.8213 31.5127C18.8573 31.5545 18.8594 31.6243 18.8331 31.6394C18.7971 31.6607 18.7712 31.6315 18.7435 31.6186C18.6523 31.5773 18.5513 31.563 18.4523 31.5775C18.4056 31.5825 18.3617 31.6018 18.3266 31.633C18.3126 31.6442 18.3016 31.6587 18.2946 31.6752C18.2876 31.6918 18.2848 31.7098 18.2865 31.7276C18.2883 31.7455 18.2944 31.7627 18.3044 31.7776C18.3144 31.7925 18.328 31.8046 18.3439 31.813C18.3861 31.8316 18.4296 31.8469 18.4742 31.8587C18.5495 31.8832 18.6272 31.9019 18.7003 31.9307C18.9419 32.029 18.9012 32.3296 18.7669 32.4419C18.6326 32.5542 18.3543 32.5794 18.2042 32.4829C18.1817 32.469 18.1618 32.4513 18.1452 32.4307C18.129 32.4094 18.1176 32.3848 18.1117 32.3587C18.1084 32.3256 18.108 32.2922 18.1106 32.259Z" fill="#737070"/>
<path d="M7.51343 31.1895C7.50341 31.2473 7.48186 31.3025 7.45007 31.3518C7.36436 31.5158 7.26514 31.6723 7.15343 31.8198C7.09523 31.892 7.06654 31.9836 7.07315 32.0761C7.07819 32.1953 7.07315 32.3145 7.07315 32.434C7.07315 32.4739 7.06919 32.5168 7.01591 32.5222C6.98952 32.5268 6.96236 32.5221 6.93901 32.509C6.91566 32.4959 6.89755 32.4751 6.88775 32.4502C6.88006 32.4181 6.87631 32.3852 6.87659 32.3523C6.87659 32.2529 6.87227 32.1535 6.87659 32.0542C6.87978 31.9748 6.85535 31.8968 6.80747 31.8335C6.67765 31.6494 6.56715 31.4524 6.47771 31.2456C6.46296 31.2161 6.45172 31.1849 6.44423 31.1527C6.44292 31.1463 6.44309 31.1396 6.44473 31.1332C6.44637 31.1268 6.44944 31.1209 6.4537 31.1159C6.45796 31.1109 6.46331 31.1069 6.46934 31.1042C6.47537 31.1015 6.48192 31.1003 6.48851 31.1005C6.52154 31.0951 6.55545 31.1003 6.58534 31.1154C6.61523 31.1304 6.63957 31.1546 6.65483 31.1844C6.69083 31.2481 6.71675 31.3162 6.75239 31.3795C6.81359 31.4893 6.87767 31.5977 6.94355 31.7035C6.97127 31.7485 7.00403 31.7464 7.03571 31.701C7.13257 31.5586 7.21827 31.4088 7.29203 31.2532C7.31081 31.211 7.33172 31.1698 7.35467 31.1297C7.38023 31.0897 7.42199 31.0937 7.46267 31.1067C7.47931 31.1126 7.49342 31.124 7.50265 31.1391C7.51189 31.1542 7.51569 31.1719 7.51343 31.1895Z" fill="#747373"/>
<path d="M19.3255 31.1972C19.3691 31.2598 19.3018 31.3592 19.3795 31.3959C19.4346 31.4222 19.5091 31.4067 19.575 31.4096C19.5948 31.4096 19.6146 31.4096 19.6344 31.4096C19.6747 31.4096 19.7194 31.4096 19.7208 31.4657C19.7241 31.4894 19.7185 31.5135 19.7053 31.5334C19.692 31.5533 19.6719 31.5676 19.6488 31.5737C19.6037 31.5834 19.558 31.5899 19.512 31.5932C19.4792 31.5964 19.4458 31.5932 19.4126 31.5975C19.3795 31.6018 19.3486 31.6194 19.3482 31.6576C19.3482 31.8376 19.3417 32.0154 19.3507 32.1936C19.3558 32.3016 19.4267 32.3578 19.5354 32.3614C19.5683 32.3601 19.6012 32.3569 19.6337 32.3517C19.6902 32.3466 19.7168 32.3805 19.7024 32.433C19.6967 32.4556 19.6852 32.4763 19.6691 32.493C19.6529 32.5097 19.6326 32.5219 19.6103 32.5284C19.3986 32.6004 19.201 32.4881 19.1581 32.2707C19.1521 32.2381 19.1491 32.2051 19.1491 32.172C19.1491 31.9337 19.1491 31.6954 19.1491 31.4567C19.1442 31.3833 19.166 31.3107 19.2107 31.2522C19.2402 31.2162 19.2733 31.1817 19.3255 31.1972Z" fill="#737070"/>
<path d="M24.1806 32.0896C24.1806 32.0036 24.1766 31.9175 24.1806 31.8319C24.1831 31.7455 24.2055 31.6609 24.2461 31.5845C24.2848 31.5143 24.3469 31.4597 24.4215 31.4303C24.4962 31.4009 24.5787 31.3984 24.655 31.4233C24.6871 31.4326 24.7149 31.4531 24.7334 31.4809C24.7519 31.5088 24.76 31.5423 24.7562 31.5755C24.7562 31.6015 24.7447 31.6274 24.7072 31.6195C24.669 31.6093 24.63 31.6021 24.5906 31.5979C24.4743 31.591 24.4153 31.6339 24.393 31.7458C24.3816 31.8108 24.3759 31.8767 24.376 31.9427C24.3739 32.1083 24.376 32.2736 24.376 32.4392C24.376 32.4723 24.3732 32.5069 24.3361 32.5213C24.3136 32.5271 24.2899 32.5262 24.2679 32.5189C24.2458 32.5115 24.2264 32.498 24.2119 32.4799C24.1895 32.4467 24.1779 32.4075 24.1788 32.3675C24.1788 32.2747 24.1788 32.1821 24.1788 32.0896H24.1806Z" fill="#747373"/>
<path d="M10.1453 32.0869C10.1453 32.0008 10.1453 31.9148 10.1453 31.8291C10.1456 31.7358 10.1723 31.6444 10.2223 31.5656C10.2611 31.5032 10.3192 31.4551 10.3879 31.4287C10.4565 31.4024 10.5318 31.3991 10.6025 31.4194C10.6253 31.4238 10.6468 31.4336 10.6651 31.4481C10.6833 31.4626 10.6978 31.4813 10.7072 31.5026C10.7157 31.5169 10.7209 31.5329 10.7224 31.5495C10.7239 31.5661 10.7216 31.5828 10.7159 31.5983C10.6953 31.6387 10.6601 31.6167 10.6298 31.6099C10.6105 31.6047 10.5909 31.601 10.5711 31.5987C10.4289 31.5879 10.362 31.6408 10.3461 31.7855C10.3379 31.8644 10.3411 31.9443 10.3404 32.0235C10.3404 32.1675 10.3404 32.3144 10.3368 32.4598C10.3368 32.5113 10.2961 32.5351 10.2371 32.5196C10.2108 32.5141 10.1873 32.4996 10.1706 32.4785C10.154 32.4575 10.1452 32.4312 10.146 32.4044C10.1427 32.2986 10.146 32.1927 10.146 32.0869H10.1453Z" fill="#747373"/>
<path d="M18.3351 8.65746C18.3196 7.27578 19.4922 6.18498 20.8011 6.1875C22.0676 6.19002 23.2462 7.21098 23.2434 8.65386C23.2405 10.0834 22.0622 11.1116 20.7889 11.1116C19.4569 11.1116 18.3204 10.0132 18.3351 8.65746Z" fill="#FFFEFE"/>
<path d="M11.7146 26.5989C11.5069 26.5989 11.3215 26.5989 11.1361 26.5989C11.0367 26.5989 11.0255 26.5827 11.0349 26.4787C11.05 26.3069 11.0709 26.1359 11.1404 25.9747C11.2844 25.6413 11.5202 25.3987 11.8784 25.3072C12.1755 25.2276 12.491 25.253 12.7715 25.3792C13.0858 25.5189 13.2082 25.79 13.2035 26.0992C13.2059 26.1762 13.1842 26.252 13.1416 26.3161C13.099 26.3802 13.0375 26.4295 12.9656 26.4571C12.8368 26.5084 12.7016 26.5422 12.5638 26.5575C12.2744 26.6 11.9831 26.596 11.7146 26.5989Z" fill="#FCFCFC"/>
<path d="M25.588 32.0727C25.588 31.8567 25.5786 31.865 25.7921 31.8682C25.8711 31.8686 25.95 31.8758 26.0279 31.8898C26.1384 31.9111 26.1859 31.9708 26.1949 32.0795C26.2057 32.2113 26.1622 32.293 26.0549 32.3344C25.9417 32.3728 25.8201 32.3792 25.7035 32.3528C25.6315 32.3395 25.598 32.293 25.5894 32.2113C25.5887 32.1981 25.5887 32.1849 25.5894 32.1717C25.5876 32.1371 25.588 32.1058 25.588 32.0727Z" fill="#F7F8F8"/>
<path d="M25.8099 31.7098C25.5683 31.7041 25.5852 31.721 25.5852 31.4798C25.5852 31.2807 25.5975 31.2685 25.794 31.2638C25.8793 31.2567 25.9652 31.2677 26.046 31.2958C26.1331 31.3318 26.1713 31.3963 26.1677 31.5003C26.1637 31.5986 26.1151 31.6695 26.0237 31.6886C25.9529 31.6996 25.8815 31.7067 25.8099 31.7098Z" fill="#F7F8F8"/>
<path d="M11.5053 31.7962C11.5025 31.7166 11.5147 31.6372 11.5413 31.5622C11.601 31.3642 11.749 31.258 11.9553 31.2598C12.1738 31.2619 12.3196 31.3739 12.3743 31.5838C12.4175 31.7368 12.4175 31.8988 12.3743 32.0518C12.3163 32.2505 12.1673 32.3661 11.9693 32.3671C11.7573 32.3671 11.6003 32.2537 11.5438 32.0503C11.5162 31.9685 11.5032 31.8825 11.5053 31.7962Z" fill="#F7F8F8"/>
<path d="M14.4973 31.8935C14.4037 31.8935 14.3572 31.8953 14.3112 31.8935C14.2428 31.8906 14.2222 31.8575 14.241 31.7884C14.2971 31.5807 14.4883 31.531 14.647 31.5843C14.682 31.5956 14.7128 31.6172 14.7354 31.6462C14.7581 31.6752 14.7716 31.7103 14.7741 31.747C14.7831 31.8161 14.7547 31.8683 14.6866 31.8787C14.6089 31.8903 14.529 31.8913 14.4973 31.8935Z" fill="#F7F8F8"/>
<path d="M23.1836 31.8848C23.189 31.6469 23.3636 31.513 23.5764 31.5796C23.6048 31.5882 23.6311 31.6028 23.6535 31.6223C23.676 31.6417 23.6941 31.6657 23.7067 31.6926C23.7535 31.7876 23.7175 31.8697 23.6145 31.8827C23.4716 31.9021 23.3267 31.9028 23.1836 31.8848Z" fill="#F7F8F8"/>
<path d="M27.1356 32.0059C27.1554 32.0059 27.1752 32.0059 27.1946 32.0059C27.2605 32.0095 27.2782 32.026 27.2818 32.0854C27.2818 32.1052 27.2818 32.125 27.2818 32.1445C27.2818 32.2352 27.2609 32.3165 27.1615 32.3482C27.0535 32.3821 26.9527 32.3749 26.866 32.2978C26.8497 32.2815 26.8372 32.2619 26.8295 32.2402C26.8217 32.2185 26.8188 32.1954 26.821 32.1725C26.8232 32.1496 26.8305 32.1275 26.8422 32.1077C26.854 32.0879 26.8699 32.071 26.889 32.0581C26.9488 32.0181 27.0056 32.0059 27.1356 32.0059Z" fill="#F7F8F8"/>
<path d="M8.47194 31.9775C8.47415 32.0404 8.46538 32.1033 8.44602 32.1632C8.40822 32.2712 8.33802 32.3461 8.22138 32.3609C8.16887 32.3696 8.11499 32.3642 8.06526 32.3452C8.01553 32.3262 7.97175 32.2944 7.93842 32.2529C7.82286 32.1132 7.81278 31.8428 7.9161 31.6927C8.03418 31.5203 8.3121 31.5357 8.41578 31.7215C8.45834 31.7998 8.47781 31.8885 8.47194 31.9775Z" fill="#F7F8F8"/>
<path d="M20.6965 31.9826C20.6976 32.0453 20.6875 32.1077 20.6666 32.1669C20.582 32.4171 20.2915 32.4117 20.1572 32.2475C20.0427 32.1071 20.0355 31.8364 20.1413 31.687C20.2576 31.5228 20.5215 31.534 20.6302 31.7072C20.6774 31.7911 20.7003 31.8864 20.6965 31.9826Z" fill="#F7F8F8"/>
</g>
<defs>
<clipPath id="clip0_1557_12715">
<rect width="36" height="36" fill="white" transform="translate(0.00292969 0.0605469)"/>
</clipPath>
</defs>
</svg>
