<svg width="35" height="37" viewBox="0 0 35 37" fill="none" xmlns="http://www.w3.org/2000/svg">
<g clip-path="url(#clip0_1557_12702)">
<mask id="mask0_1557_12702" style="mask-type:luminance" maskUnits="userSpaceOnUse" x="0" y="0" width="35" height="37">
<path d="M0.488281 0.0605469H34.4685V36.0605H0.488281V0.0605469Z" fill="white"/>
</mask>
<g mask="url(#mask0_1557_12702)">
<path fill-rule="evenodd" clip-rule="evenodd" d="M3.93408 9.98134L3.99348 9.74372L4.05289 9.44669L6.66675 0.0605469L34.4687 0.119953L3.75586 25.1299L17.7757 8.19916H7.26081L6.66675 8.25857C5.41923 8.31797 4.29051 9.09025 3.93408 9.98134Z" fill="#808285"/>
<path fill-rule="evenodd" clip-rule="evenodd" d="M32.9834 17.2289C32.9834 17.1101 32.0923 22.5161 30.6071 28.1002L1.55762 28.2784L32.924 2.91211L18.8447 19.9616H29.419L30.0131 19.9022C31.2606 19.8428 32.5675 18.12 32.9834 17.2289Z" fill="#ED1C24"/>
<path fill-rule="evenodd" clip-rule="evenodd" d="M5.41897 36.0597H0.488281L3.87442 31.4261H1.61699L1.79521 30.1191H6.48828L3.10214 34.7528H5.59719L5.41897 36.0597ZM6.36947 36.0597L7.14175 30.1191H10.5279L10.3497 31.4261H8.44868L8.32987 32.436H10.112L9.99323 33.7429H8.15165L8.03284 34.7528H9.93383L9.75561 36.0597H6.36947ZM10.7655 36.0597L11.5378 30.1191H13.0229L14.7457 33.2082L14.8645 33.5647L15.1021 34.2182C15.1057 33.8412 15.1255 33.4646 15.1615 33.0894L15.518 30.1191H17.0031L16.2309 36.0597H14.8051L13.0823 33.03L12.9041 32.6142L12.6665 31.9607C12.6634 32.3574 12.6436 32.7538 12.6071 33.1488L12.2507 36.0597H10.7655ZM17.4784 36.0597L18.2507 30.1191H19.7952L19.0229 36.0597H17.4784ZM21.0427 36.0597L21.6368 31.5449H20.3893L20.5675 30.1191H24.6071L24.4289 31.5449H23.1814L22.5873 36.0597H21.0427ZM24.5477 36.0597L25.32 30.1191H26.8645L26.5675 32.436H28.5873L28.8843 30.1191H30.4289L29.6566 36.0597H28.112L28.4091 33.6241H26.3893L26.0922 36.0597H24.5477Z" fill="#808285"/>
</g>
</g>
<defs>
<clipPath id="clip0_1557_12702">
<rect width="33.9802" height="36" fill="white" transform="translate(0.488281 0.0605469)"/>
</clipPath>
</defs>
</svg>
